<svg width="347" height="308" viewBox="0 0 347 308" fill="none" xmlns="http://www.w3.org/2000/svg">
<path fill-rule="evenodd" clip-rule="evenodd" d="M274.88 308H15.6593C7.30249 308 0.527344 301.219 0.527344 292.853V92.5036H290.012V292.853C290.012 301.219 283.238 308 274.88 308" fill="#57B9A2"/>
<path fill-rule="evenodd" clip-rule="evenodd" d="M280.978 65.8928H9.5589C4.57136 65.8928 0.527344 69.9405 0.527344 74.9337V92.5037H290.012V74.9337C290.012 69.9405 285.968 65.8928 280.978 65.8928" fill="#1DAB6B"/>
<path fill-rule="evenodd" clip-rule="evenodd" d="M158.568 308C158.568 308 150.014 242.728 123.799 211.185C97.5832 179.641 92.5637 174.617 85.5908 166.802C78.6203 158.986 74.7148 151.17 74.7148 151.17L96.468 122.698C96.468 122.698 109.019 136.236 118.92 139.585C128.819 142.935 140.673 144.051 167.167 141.679C193.662 139.306 217.366 137.352 225.454 141.121C233.542 144.889 257.665 175.641 257.665 175.641L244.092 209.882L237.027 206.905C237.027 206.905 249.019 244.403 251.251 260.035C253.483 275.666 254.69 308 254.69 308H158.568Z" fill="#EE4266"/>
<path fill-rule="evenodd" clip-rule="evenodd" d="M94.4112 125.349C94.4112 125.349 73.6856 103.583 67.6894 74.6924C61.6932 45.8006 61.6932 37.7064 61.6932 37.7064C61.6932 37.7064 73.965 16.9905 73.6749 14.5223C71.1249 7.34999 60.4277 21.5441 58.5632 22.4328C55.4946 22.1532 49.1445 5.32615 45.5172 2.6743C41.8934 0.0224544 32.8122 7.24927 30.5818 13.809C28.3502 20.3687 34.4542 25.0574 38.639 28.6856C42.8216 32.315 44.4541 32.257 44.4541 36.1636C44.4541 40.0727 46.7389 88.0962 57.7546 113.219C68.7715 138.341 77.1626 147.926 77.1626 147.926L94.4112 125.349Z" fill="white"/>
<path fill-rule="evenodd" clip-rule="evenodd" d="M255.712 180.564L261.289 186.062C261.289 186.062 267.286 177.548 277.883 172.523C288.481 167.499 298.122 162.019 302.699 157.862C307.393 153.6 306.844 150.74 308.936 142.644C311.027 134.55 310.604 123.976 312.974 124.394C315.345 124.814 318.116 140.949 318.116 140.949C320.068 139.693 328.223 123.793 330.315 123.385C332.405 122.976 331.011 128.699 331.011 128.699C331.011 128.699 336.449 124.232 337.705 126.745C338.959 129.257 335.893 134.701 335.893 134.701C335.893 134.701 341.61 129.815 343.144 131.769C344.676 133.723 336.589 143.074 336.589 143.074C336.589 143.074 344.817 141.818 345.513 144.89C346.21 147.96 336.954 146.199 329.338 154.714C322.268 162.617 265.751 212.72 261.568 214.395C257.385 216.07 244.684 208.388 244.684 208.388L255.712 180.564Z" fill="white"/>
<path fill-rule="evenodd" clip-rule="evenodd" d="M132.346 130.7C132.346 130.7 130.951 125.49 131.695 114.137C132.438 102.785 137.458 94.9697 137.458 94.9697L143.687 114.975L132.346 130.7Z" fill="white"/>
<path fill-rule="evenodd" clip-rule="evenodd" d="M144.993 158.986L213.879 149.634C213.879 149.634 213.181 147.681 212.484 140.144C211.787 132.607 209.277 127.443 196.587 120.744C183.897 114.044 181.387 115.3 181.667 110.415C181.946 105.531 189.057 102.321 184.874 96.3191C180.69 90.3175 168.978 89.6196 165.352 85.9902C161.727 82.362 161.727 78.7326 162.424 77.6164C163.121 76.5002 174.136 53.6099 159.355 56.9597C144.574 60.3095 148.339 80.5478 148.339 80.5478C148.339 80.5478 137.463 84.0374 135.371 90.8756C133.279 97.7149 138.439 104.275 139.137 110.415C139.834 116.556 129.27 125.498 129.932 133.863C130.596 142.229 138.997 146.704 142.344 149.216C145.69 151.728 144.993 158.986 144.993 158.986" fill="#222323"/>
<path fill-rule="evenodd" clip-rule="evenodd" d="M244.085 80.5934C244.085 83.6777 241.588 86.1767 238.508 86.1767C235.428 86.1767 232.93 83.6777 232.93 80.5934C232.93 77.5103 235.428 75.0113 238.508 75.0113C241.588 75.0113 244.085 77.5103 244.085 80.5934" fill="#4F266A"/>
<path fill-rule="evenodd" clip-rule="evenodd" d="M260.264 80.5934C260.264 83.6777 257.767 86.1767 254.686 86.1767C251.607 86.1767 249.107 83.6777 249.107 80.5934C249.107 77.5103 251.607 75.0113 254.686 75.0113C257.767 75.0113 260.264 77.5103 260.264 80.5934" fill="#4F266A"/>
<path fill-rule="evenodd" clip-rule="evenodd" d="M275.56 80.5934C275.56 83.6777 273.063 86.1767 269.983 86.1767C266.902 86.1767 264.404 83.6777 264.404 80.5934C264.404 77.5103 266.902 75.0113 269.983 75.0113C273.063 75.0113 275.56 77.5103 275.56 80.5934" fill="#4F266A"/>
<path fill-rule="evenodd" clip-rule="evenodd" d="M132.157 132.483C131.896 132.483 131.645 132.337 131.52 132.089C131.357 131.763 127.539 123.955 128.52 111.892C129.51 99.7119 136.051 94.6144 136.329 94.4023C136.64 94.1653 137.087 94.2269 137.326 94.5386C137.564 94.8526 137.505 95.2993 137.191 95.5375C137.128 95.586 130.875 100.502 129.94 112.009C128.994 123.65 132.757 131.374 132.795 131.45C132.971 131.803 132.827 132.232 132.476 132.409C132.374 132.459 132.265 132.483 132.157 132.483" fill="#222323"/>
<path fill-rule="evenodd" clip-rule="evenodd" d="M75.761 150.505C75.5491 150.505 75.3408 150.412 75.1999 150.233C74.9986 149.976 55.1669 124.429 50.5155 102.468C47.7655 89.4808 46.2371 68.7922 45.1196 53.6868C44.4223 44.2442 43.7629 35.3242 43.1745 34.3478C42.2973 33.1818 41.0578 32.1213 39.4868 30.78C38.2142 29.6911 36.6278 28.3367 34.7941 26.5392C30.6778 22.5057 28.0864 17.9118 27.9775 17.7175C27.7857 17.3738 27.9076 16.939 28.251 16.747C28.5931 16.5563 29.0276 16.6759 29.2205 17.0207C29.2466 17.0658 31.8273 21.6348 35.7897 25.5202C37.5903 27.2833 39.0891 28.5642 40.4138 29.6934C42.0498 31.0928 43.345 32.1984 44.3216 33.5029C45.071 34.5042 45.5008 39.5152 46.5402 53.5826C47.6554 68.6464 49.179 89.2794 51.9101 102.172C56.4928 123.807 76.1245 149.099 76.3222 149.351C76.5637 149.663 76.5104 150.111 76.2002 150.354C76.07 150.456 75.9149 150.505 75.761 150.505" fill="#1D1D1B"/>
<path fill-rule="evenodd" clip-rule="evenodd" d="M38.7385 23.8516C38.5207 23.8516 38.3052 23.752 38.1667 23.5624C38.1466 23.5376 36.2654 20.99 34.2304 17.7492C32.1622 14.4552 30.6848 9.96433 30.6232 9.77474C30.5013 9.40031 30.7049 8.99744 31.079 8.87539C31.4519 8.7486 31.8544 8.95596 31.9787 9.33158C31.9929 9.37661 33.4633 13.8473 35.4356 16.9897C37.4434 20.1854 39.2925 22.6892 39.3091 22.7129C39.5459 23.0304 39.4784 23.4771 39.1623 23.7117C39.0345 23.8065 38.8853 23.8516 38.7385 23.8516" fill="#1D1D1B"/>
<path fill-rule="evenodd" clip-rule="evenodd" d="M43.0066 20.2224C42.8255 20.2224 42.642 20.1525 42.5035 20.0138C42.4325 19.9427 40.7538 18.2471 38.1422 14.421C35.5046 10.5546 33.659 4.11224 33.582 3.8397C33.4743 3.46053 33.6945 3.06595 34.0733 2.95813C34.4522 2.84556 34.8452 3.07069 34.9541 3.44987C34.9731 3.51385 36.8127 9.94321 39.3201 13.6165C41.8453 17.317 43.4956 18.9877 43.5109 19.0055C43.7891 19.2839 43.7891 19.7354 43.5109 20.0138C43.3724 20.1525 43.1889 20.2224 43.0066 20.2224" fill="#1D1D1B"/>
<path fill-rule="evenodd" clip-rule="evenodd" d="M50.0779 19.6636C49.9276 19.6636 49.7749 19.615 49.647 19.5167C49.5275 19.4266 46.7277 17.2547 44.2724 13.3776C41.8183 9.5077 39.8022 1.23105 39.7169 0.880311C39.6258 0.497583 39.8602 0.112484 40.2426 0.0200608C40.6285 -0.0723628 41.0109 0.163436 41.1032 0.544979C41.1233 0.629109 43.1477 8.94368 45.474 12.6134C47.7872 16.2653 50.4864 18.3638 50.5136 18.3851C50.8261 18.6245 50.8841 19.0724 50.645 19.384C50.5029 19.5676 50.2922 19.6636 50.0779 19.6636" fill="#1D1D1B"/>
<path fill-rule="evenodd" clip-rule="evenodd" d="M95.0797 125.229C94.8548 125.229 94.6322 125.123 94.4937 124.922C94.3138 124.662 76.4188 98.8164 71.3495 89.3797C66.3194 80.0153 60.4605 41.7175 60.9932 37.613C61.2951 35.2882 63.9931 30.9075 66.8462 26.2686C68.6148 23.3987 70.2829 20.6864 71.2619 18.6413C73.0105 14.9965 73.0495 13.8412 72.7737 13.5117C72.6742 13.3968 72.1901 13.0639 69.9798 13.6824C65.5984 14.91 59.0896 22.7316 59.0233 22.8098C58.7724 23.1143 58.3249 23.1558 58.0194 22.9046C57.7175 22.6534 57.6737 22.2031 57.9259 21.8998C58.2041 21.5645 64.7875 13.6551 69.5963 12.3091C71.1151 11.8837 72.9738 11.5306 73.8652 12.5958C74.8608 13.7819 74.0984 16.0238 72.5488 19.2586C71.5342 21.3725 69.8484 24.1144 68.0608 27.0174C65.5345 31.122 62.6708 35.7752 62.4068 37.7966C61.996 40.958 67.5648 79.3233 72.6056 88.7031C77.6369 98.071 95.4858 123.85 95.6657 124.11C95.8906 124.434 95.809 124.879 95.4858 125.103C95.3615 125.188 95.2194 125.229 95.0797 125.229" fill="#1D1D1B"/>
<path fill-rule="evenodd" clip-rule="evenodd" d="M261.284 186.777C261.101 186.777 260.922 186.705 260.787 186.574L254.186 180.154C253.904 179.879 253.898 179.428 254.172 179.146C254.449 178.862 254.899 178.857 255.181 179.131L261.104 184.893C262.841 181.807 269.428 171.405 280.711 168.312C293.386 164.837 301.974 157.876 305.052 154.313C306.519 152.613 307.585 145.38 308.526 139.001C309.779 130.506 310.653 125.254 312.236 123.951C312.7 123.567 313.236 123.465 313.75 123.675C316.199 124.662 317.785 134.652 318.417 139.508C320.13 137.643 323.505 133.932 325.007 132.026C327.013 129.482 329.624 123.176 329.65 123.113C329.799 122.748 330.219 122.571 330.58 122.726C330.945 122.876 331.117 123.293 330.967 123.656C330.858 123.923 328.255 130.211 326.126 132.91C324.04 135.554 318.648 141.361 318.419 141.607C318.23 141.811 317.94 141.886 317.676 141.799C317.412 141.714 317.222 141.481 317.189 141.206C316.21 132.838 314.35 125.262 313.21 124.996C311.869 126.1 310.796 133.369 309.937 139.209C308.873 146.419 307.87 153.232 306.13 155.247C302.177 159.824 293.246 166.353 281.088 169.688C268.694 173.085 261.989 186.249 261.921 186.382C261.82 186.586 261.628 186.727 261.404 186.767C261.363 186.774 261.322 186.777 261.284 186.777" fill="#1D1D1B"/>
<path fill-rule="evenodd" clip-rule="evenodd" d="M326.125 137.508C325.959 137.508 325.793 137.451 325.66 137.335C325.361 137.076 325.328 136.626 325.585 136.329C325.628 136.28 329.828 131.398 331.684 128.839C333.426 126.436 333.642 124.464 333.643 124.444C333.682 124.054 334.008 123.779 334.421 123.803C334.813 123.842 335.1 124.186 335.063 124.578C335.055 124.673 334.827 126.936 332.837 129.678C330.945 132.286 326.84 137.057 326.665 137.26C326.525 137.423 326.325 137.508 326.125 137.508" fill="#1D1D1B"/>
<path fill-rule="evenodd" clip-rule="evenodd" d="M330.241 139.879C329.966 139.879 329.705 139.719 329.587 139.452C329.429 139.091 329.596 138.67 329.954 138.513C329.991 138.498 333.52 136.905 336.267 132.272C338.945 127.753 339.225 126.766 339.237 126.726C339.336 126.358 339.715 126.115 340.08 126.201C340.45 126.281 340.697 126.626 340.634 127.002C340.596 127.229 340.259 128.334 337.491 133C334.496 138.055 330.684 139.751 330.524 139.821C330.43 139.86 330.334 139.879 330.241 139.879" fill="#1D1D1B"/>
<path fill-rule="evenodd" clip-rule="evenodd" d="M331.282 145.743C330.988 145.743 330.713 145.559 330.61 145.264C330.481 144.892 330.677 144.485 331.049 144.355C331.113 144.333 337.474 142.115 340.621 140.745C343.58 139.458 344.947 137.526 344.962 137.505C345.183 137.181 345.627 137.103 345.953 137.325C346.275 137.549 346.356 137.991 346.135 138.315C346.071 138.407 344.545 140.593 341.189 142.055C337.994 143.445 331.78 145.613 331.517 145.704C331.441 145.73 331.36 145.743 331.282 145.743" fill="#1D1D1B"/>
<path fill-rule="evenodd" clip-rule="evenodd" d="M259.784 215.255C252.688 215.255 244.617 209.237 244.246 208.958C243.932 208.721 243.87 208.274 244.107 207.959C244.346 207.643 244.792 207.585 245.105 207.819C245.199 207.89 254.573 214.87 261.439 213.693C268.199 212.521 318.768 164.94 325.586 157.138C330.795 151.178 339.86 147.667 342.513 146.733C342.886 146.603 343.334 146.779 343.468 147.146C343.599 147.515 343.459 147.904 343.093 148.04C343.088 148.041 342.987 148.078 342.985 148.079C340.414 148.983 331.64 152.379 326.659 158.078C321.15 164.381 269.253 213.787 261.682 215.097C261.062 215.205 260.426 215.255 259.784 215.255" fill="#1D1D1B"/>
</svg>
