<svg width="551" height="400" viewBox="0 0 551 400" fill="none" xmlns="http://www.w3.org/2000/svg">
<path d="M147.044 48.6019C147.044 48.6019 148.32 46.3341 148.604 43.9242C148.887 41.5143 147.824 37.1904 147.824 37.1904C147.824 37.1904 145.414 35.7023 145.202 33.7882C144.989 31.8741 144.28 28.1887 144.28 28.1887C144.28 28.1887 140.878 32.442 138.609 29.4643C136.341 26.4872 135.987 22.4473 137.829 20.7458C139.672 19.0443 141.231 20.108 141.231 20.108C141.231 20.108 138.75 13.0196 139.885 10.5392C141.019 8.05793 144.067 7.34955 146.689 6.92437C149.311 6.49919 150.942 6.71178 152.146 4.08933C153.351 1.46688 160.298 2.10465 162.141 4.08933C163.984 6.07401 163.843 9.76017 163.843 9.76017C163.843 9.76017 166.323 11.4617 166.395 12.9498C166.465 14.4379 165.827 17.9821 165.827 17.9821C165.827 17.9821 170.151 16.9898 171.285 20.25C172.419 23.511 170.08 26.9132 167.67 27.9761C165.26 29.0391 163.701 27.9761 163.701 27.9761C163.701 27.9761 163.204 33.0084 162.141 34.7099C161.078 36.4114 159.377 37.7576 159.377 37.7576C159.377 37.7576 159.306 42.7899 159.731 44.7039C160.157 46.618 161.929 48.9565 161.929 48.9565L158.173 59.1039L147.044 48.6019Z" fill="white"/>
<path d="M126.917 146.05L41.1484 267.674L56.1755 281.804L136.739 188.845L133.163 145.185L126.917 146.05Z" fill="#EDEDED"/>
<path d="M130.802 114.386L123.651 72.9853C123.651 72.9853 117.555 83.5404 117.839 92.085C118.122 100.63 120.674 113.105 120.674 113.105L98.7005 123.595C98.7005 123.595 92.7464 109.703 95.1563 86.3117C97.5662 62.9207 110.183 39.1045 117.839 36.6938C125.494 34.284 142.258 43.6045 147.893 48.1768C153.528 52.749 158.172 59.1039 158.172 59.1039C158.172 59.1039 160.97 44.1899 169.53 39.352C178.089 34.514 181.119 35.4183 183.352 38.8205C185.585 42.2227 190.846 56.6029 190.846 56.6029L130.802 114.386Z" fill="#57B9A2"/>
<path d="M133.391 148.178C133.391 148.178 121.598 145.64 114.723 137.843C107.848 130.046 103.709 121.206 103.709 121.206L118.906 113.951C118.906 113.951 122.592 119.626 125.922 122.036C129.253 124.446 131.65 125.439 131.65 125.439L133.391 148.178Z" fill="white"/>
<path d="M0 286.979L26.5806 289.956C26.5806 289.956 37.8137 289.637 40.0118 290.912C42.2098 292.188 42.9045 292.811 42.9045 292.811L41.572 294.527L31.7906 309.837L0 286.979Z" fill="#1B1C1C"/>
<path d="M26.5801 289.956L43.5888 269.971L53.4431 279.237L41.5722 294.528C41.5722 294.528 38.8078 291.87 36.0434 292.295C33.2789 292.72 32.7475 293.145 30.6208 293.145C28.4941 293.145 26.5801 289.956 26.5801 289.956Z" fill="white"/>
<path d="M26.5785 290.499C26.4533 290.499 26.3295 290.457 26.2262 290.369C25.9977 290.175 25.9704 289.833 26.1647 289.603L43.1735 269.618C43.3678 269.388 43.7103 269.362 43.9396 269.556C44.1681 269.75 44.1954 270.093 44.0011 270.322L26.9923 290.308C26.8853 290.435 26.7327 290.499 26.5785 290.499Z" fill="#1B1C1C"/>
<path d="M41.5708 295.071C41.4539 295.071 41.3362 295.034 41.2375 294.956C41.0006 294.772 40.9573 294.431 41.1418 294.194L53.0127 278.902C53.1949 278.665 53.5381 278.622 53.775 278.807C54.0119 278.991 54.0551 279.332 53.8706 279.569L42.0005 294.86C41.8935 294.999 41.7325 295.071 41.5708 295.071Z" fill="#1B1C1C"/>
<path d="M96.4494 116.368C96.2308 116.368 96.025 116.235 95.9423 116.019C95.8352 115.738 95.9749 115.424 96.2551 115.317L119.369 106.499C119.652 106.392 119.963 106.531 120.07 106.811C120.178 107.092 120.038 107.407 119.758 107.513L96.6438 116.332C96.5793 116.357 96.514 116.368 96.4494 116.368Z" fill="#1B1C1C"/>
<path d="M133.39 148.721C133.321 148.721 133.251 148.708 133.183 148.68C132.682 148.474 120.838 143.569 114.376 138.262C107.871 132.919 103.391 121.875 103.203 121.408C103.092 121.129 103.227 120.813 103.505 120.701C103.784 120.59 104.099 120.722 104.212 121.003C104.257 121.115 108.778 132.258 115.067 137.421C121.402 142.625 133.476 147.626 133.598 147.675C133.875 147.789 134.008 148.106 133.893 148.384C133.806 148.595 133.604 148.721 133.39 148.721Z" fill="#1B1C1C"/>
<path d="M131.649 125.982C131.56 125.982 131.47 125.961 131.387 125.914C131.348 125.893 127.464 123.746 124.58 121.646C121.635 119.498 118.568 114.445 118.44 114.231C118.285 113.974 118.367 113.641 118.624 113.486C118.877 113.332 119.214 113.412 119.369 113.67C119.399 113.721 122.453 118.75 125.22 120.767C128.048 122.829 131.873 124.943 131.912 124.964C132.175 125.109 132.271 125.44 132.125 125.702C132.026 125.881 131.84 125.982 131.649 125.982Z" fill="#1B1C1C"/>
<path d="M123.653 73.5274C123.611 73.5274 123.568 73.5228 123.527 73.5122C123.236 73.4431 123.055 73.1515 123.124 72.8608C123.135 72.8091 123.437 71.5647 124.932 68.3614C126.423 65.1665 130.204 59.6551 130.364 59.4228C130.534 59.1768 130.873 59.1138 131.12 59.2823C131.367 59.4524 131.43 59.791 131.26 60.0378C131.221 60.0939 127.371 65.7078 125.917 68.8208C124.485 71.8912 124.185 73.0992 124.182 73.1105C124.12 73.3596 123.898 73.5274 123.653 73.5274Z" fill="#1B1C1C"/>
<path d="M154.389 39.2427C153.349 39.2427 152.69 38.9997 151.956 38.7302C151.439 38.5388 150.903 38.3414 150.126 38.1835C147.598 37.6657 146.288 36.665 144.736 34.0653C143.175 31.4512 142.215 17.9548 142.175 17.3815C142.164 17.2213 142.225 17.0642 142.34 16.9526C142.455 16.8402 142.612 16.7855 142.774 16.803C142.814 16.806 146.737 17.1872 150.215 15.5244C153.551 13.9292 154.413 11.4951 154.93 10.0411L154.988 9.87786C155.384 8.7686 154.99 5.7483 154.805 4.67699C154.754 4.38165 154.952 4.10072 155.248 4.04985C155.533 3.98684 155.824 4.19639 155.875 4.4925C155.948 4.91464 156.574 8.6661 156.011 10.2431L155.953 10.4048C155.419 11.9111 154.425 14.7166 150.683 16.5054C147.752 17.9062 144.621 17.9722 143.304 17.9244C143.622 22.1519 144.542 31.6221 145.67 33.5088C147.068 35.8534 148.116 36.6635 150.345 37.1183C151.201 37.2944 151.802 37.5154 152.332 37.7105C153.252 38.0491 153.919 38.2943 155.476 38.0704C158.385 37.6543 160.356 36.5504 161.501 34.694C162.592 32.9264 163.248 25.0021 163.409 22.0988C163.426 21.8004 163.701 21.5589 163.981 21.5863C164.282 21.6022 164.511 21.8588 164.494 22.1587C164.433 23.2559 163.86 32.9424 162.427 35.2657C161.101 37.4129 158.877 38.6823 155.628 39.147C155.157 39.213 154.75 39.2427 154.389 39.2427Z" fill="#1B1C1C"/>
<path d="M164.924 28.6397C164.146 28.6397 163.553 28.5805 163.385 28.5615C163.087 28.5273 162.873 28.2578 162.907 27.9609C162.941 27.6618 163.205 27.4462 163.507 27.4811C164.742 27.6223 168.162 27.6755 169.146 26.2837C171.157 23.4297 171.229 21.1542 169.365 19.3267C167.05 17.0566 164.433 19.4467 164.321 19.5499C164.182 19.6783 163.985 19.7261 163.806 19.6752C163.717 19.6509 161.613 19.0435 160.835 16.8911C160.12 14.9102 160.111 13.7766 160.111 13.7295V12.5755C160.111 12.2748 160.354 12.0318 160.655 12.0318C160.956 12.0318 161.199 12.2748 161.199 12.5755V13.7295C161.199 13.7371 161.215 14.7431 161.858 16.5221C162.306 17.7604 163.346 18.3276 163.836 18.5333C165.157 17.4635 167.848 16.3163 170.126 18.55C172.403 20.7822 172.372 23.5945 170.033 26.9109C169 28.3755 166.555 28.6397 164.924 28.6397Z" fill="#1B1C1C"/>
<path d="M140.641 31.0518C139.371 31.0518 137.889 29.3056 137.033 27.6565C135.706 25.0963 135.67 22.5991 136.936 20.9743C139.211 18.058 142.092 19.0223 143.295 19.9402C143.534 20.1217 143.58 20.4603 143.399 20.6995C143.218 20.9379 142.878 20.988 142.638 20.8057C142.369 20.603 139.932 18.8993 137.794 21.6432C136.315 23.5398 137.577 26.343 137.998 27.1569C138.907 28.9123 140.137 29.9654 140.636 29.9654C140.642 29.9654 140.648 29.9654 140.653 29.9654C142.229 29.8887 143.591 28.6101 143.605 28.5972C143.821 28.3914 144.165 28.3975 144.373 28.6162C144.581 28.8341 144.571 29.178 144.354 29.3845C144.286 29.4483 142.68 30.9547 140.705 31.0496C140.683 31.0511 140.662 31.0518 140.641 31.0518Z" fill="#1B1C1C"/>
<path d="M155.977 14.6968C155.823 14.6968 155.671 14.6323 155.564 14.507C155.369 14.2785 155.396 13.936 155.623 13.7409C155.637 13.7295 156.964 12.5709 157.698 10.5642C158.45 8.51043 158.357 5.00801 158.356 4.97308C158.348 4.67242 158.583 4.42338 158.884 4.41351C159.172 4.42414 159.434 4.64053 159.443 4.94119C159.448 5.09304 159.544 8.68658 158.72 10.9378C157.883 13.2261 156.392 14.5138 156.33 14.5677C156.226 14.6543 156.101 14.6968 155.977 14.6968Z" fill="#1B1C1C"/>
<path d="M158.904 16.0787C158.778 16.0787 158.651 16.0354 158.549 15.945C158.322 15.7484 158.298 15.406 158.493 15.179C158.504 15.1676 159.561 13.9307 160.467 11.6158C161.359 9.33272 160.97 6.17272 160.965 6.14083C160.927 5.84397 161.138 5.57064 161.435 5.53267C161.72 5.49092 162.006 5.70351 162.044 6.00265C162.062 6.14235 162.475 9.46635 161.479 12.0114C160.498 14.5161 159.361 15.8365 159.313 15.8919C159.207 16.0149 159.056 16.0787 158.904 16.0787Z" fill="#1B1C1C"/>
<path d="M150.661 13.8989C150.522 13.8989 150.383 13.8457 150.277 13.7394C150.064 13.5268 150.064 13.1829 150.277 12.9711C150.87 12.3781 152.482 10.5794 152.811 9.40789C153.213 7.97518 152.803 5.6048 152.8 5.58126C152.747 5.28515 152.945 5.00347 153.24 4.95184C153.528 4.89414 153.817 5.0961 153.869 5.39221C153.888 5.49926 154.326 8.03288 153.858 9.7002C153.385 11.3865 151.141 13.643 151.046 13.7387C150.939 13.8457 150.8 13.8989 150.661 13.8989Z" fill="#1B1C1C"/>
<path d="M141.054 20.111C140.851 20.111 140.657 19.9972 140.564 19.802C140.43 19.5226 137.308 12.927 139.023 9.89836C140.317 7.61301 141.423 7.49761 142.955 7.33741C143.51 7.27894 144.14 7.21289 144.9 7.03295C147.732 6.35797 150.48 5.55848 150.508 5.55013C150.798 5.47117 151.097 5.63213 151.182 5.92064C151.267 6.2084 151.1 6.50982 150.812 6.59486C150.785 6.60245 148.01 7.41029 145.152 8.09058C144.324 8.28723 143.657 8.35708 143.069 8.41858C141.639 8.56815 140.986 8.63724 139.97 10.4344C138.775 12.5443 140.701 17.5744 141.544 19.3343C141.674 19.6054 141.559 19.9296 141.288 20.0594C141.213 20.0943 141.132 20.111 141.054 20.111Z" fill="#1B1C1C"/>
<path d="M166.412 18.4331C166.339 18.4331 166.265 18.4179 166.193 18.386C165.919 18.266 165.794 17.9456 165.914 17.6708C165.924 17.6495 166.839 15.516 166.493 12.8913C166.179 10.5072 163.289 9.97881 163.165 9.95755C162.87 9.90516 162.672 9.625 162.723 9.33041C162.774 9.03354 163.062 8.83614 163.349 8.88549C163.504 8.91206 167.151 9.56578 167.571 12.7493C167.958 15.6884 166.952 18.0117 166.908 18.1096C166.82 18.3123 166.621 18.4331 166.412 18.4331Z" fill="#1B1C1C"/>
<path d="M138.432 25.2474C138.363 25.2474 138.293 25.2337 138.226 25.2056C137.949 25.0917 137.815 24.7759 137.929 24.498C138.017 24.2839 138.822 22.3964 140.137 22.142C141.423 21.8915 142.4 22.6523 142.441 22.6841C142.675 22.8717 142.713 23.2141 142.526 23.4487C142.339 23.6841 141.996 23.719 141.761 23.5337C141.758 23.5315 141.128 23.0585 140.343 23.2103C139.761 23.3227 139.143 24.4046 138.935 24.9103C138.848 25.1198 138.645 25.2474 138.432 25.2474Z" fill="#1B1C1C"/>
<path d="M140.935 26.5784C140.837 26.5784 140.739 26.5525 140.651 26.4979C140.395 26.3407 140.315 26.0082 140.47 25.753C140.493 25.7136 140.906 24.9976 140.491 24.4084C140.006 23.7213 139.452 23.6082 139.429 23.6028C139.138 23.5467 138.942 23.2665 138.992 22.9742C139.043 22.6826 139.307 22.486 139.608 22.5308C139.711 22.5475 140.63 22.7206 141.379 23.782C142.214 24.9642 141.432 26.2655 141.398 26.3194C141.295 26.4857 141.117 26.5784 140.935 26.5784Z" fill="#1B1C1C"/>
<path d="M168.382 24.2125C168.308 24.2125 168.233 24.1973 168.16 24.1647C167.886 24.0424 167.763 23.7213 167.886 23.4472C167.9 23.413 168.268 22.5399 167.706 21.8254C167.149 21.1178 166.076 21.3152 166.063 21.3137C165.773 21.3759 165.484 21.18 165.426 20.8862C165.369 20.5931 165.557 20.3077 165.85 20.2484C165.92 20.2355 167.584 19.9144 168.561 21.155C169.532 22.3918 168.905 23.8306 168.877 23.8913C168.788 24.0925 168.589 24.2125 168.382 24.2125Z" fill="#1B1C1C"/>
<path d="M165.721 25.2459C165.429 25.2459 165.188 25.0158 165.177 24.7228C165.173 24.5998 165.151 23.5057 165.663 22.7593C166.13 22.076 167.568 21.1938 167.852 21.0237C168.11 20.8665 168.444 20.9546 168.597 21.2105C168.751 21.4671 168.668 21.8019 168.41 21.9553C167.833 22.3023 166.819 22.9932 166.56 23.3736C166.296 23.7578 166.256 24.451 166.264 24.6863C166.272 24.9855 166.037 25.236 165.738 25.2459C165.732 25.2459 165.726 25.2459 165.721 25.2459Z" fill="#1B1C1C"/>
<path d="M153.336 28.9381C153.049 28.9381 152.81 28.7141 152.794 28.4256C152.777 28.1265 153.006 27.8691 153.306 27.8524C153.934 27.8159 154.646 27.6368 154.77 27.4841C154.754 27.1797 154.032 25.3658 153.359 23.9028C153.233 23.6302 153.353 23.3075 153.625 23.1822C153.894 23.057 154.22 23.1746 154.346 23.4487C154.812 24.4578 155.888 26.8889 155.831 27.639C155.748 28.6906 154.081 28.8979 153.367 28.9374C153.356 28.9381 153.346 28.9381 153.336 28.9381Z" fill="#1B1C1C"/>
<path d="M154.631 33.1777C154.457 33.1777 154.274 33.1724 154.084 33.161C152.302 33.0472 151.163 32.4496 151.115 32.4246C150.851 32.2834 150.752 31.9554 150.891 31.6911C151.033 31.4254 151.358 31.3282 151.626 31.4641C151.635 31.4694 152.62 31.9789 154.153 32.0768C155.655 32.1695 156.565 31.7883 156.575 31.7838C156.847 31.6706 157.17 31.7891 157.29 32.0632C157.41 32.3373 157.289 32.6554 157.015 32.7776C156.975 32.7958 156.099 33.1777 154.631 33.1777Z" fill="#1B1C1C"/>
<path fill-rule="evenodd" clip-rule="evenodd" d="M144.033 22.65C144.033 25.3855 146.01 27.6101 148.44 27.6101C150.869 27.6101 152.847 25.3855 152.847 22.65C152.847 19.9159 150.869 17.6913 148.44 17.6913C146.01 17.6913 144.033 19.9159 144.033 22.65ZM145.121 22.65C145.121 20.5142 146.611 18.7778 148.442 18.7778C150.272 18.7778 151.761 20.5142 151.762 22.65C151.762 24.7857 150.272 26.5229 148.442 26.5229C146.61 26.5229 145.121 24.7857 145.121 22.65Z" fill="#1B1C1C"/>
<path fill-rule="evenodd" clip-rule="evenodd" d="M154.74 21.8672C154.74 24.6028 156.717 26.8274 159.146 26.8274C161.575 26.8274 163.553 24.6028 163.553 21.8672C163.553 19.1331 161.576 16.9085 159.146 16.9085C156.717 16.9085 154.74 19.1331 154.74 21.8672ZM155.831 21.8679C155.831 19.7322 157.32 17.9958 159.15 17.9958C160.98 17.9958 162.469 19.7322 162.47 21.8679C162.47 24.003 160.98 25.7409 159.15 25.7409C157.32 25.7409 155.831 24.0037 155.831 21.8679Z" fill="#1B1C1C"/>
<path d="M152.201 22.1853C151.912 22.1853 151.673 21.9591 151.659 21.6683C151.644 21.3691 151.875 21.1133 152.174 21.0996L155.274 20.9477C155.577 20.9189 155.829 21.1641 155.843 21.4633C155.858 21.7624 155.627 22.0183 155.328 22.032L152.228 22.1838C152.218 22.1853 152.209 22.1853 152.201 22.1853Z" fill="#1B1C1C"/>
<circle cx="149.314" cy="22.5961" r="0.728122" fill="#1B1C1C"/>
<circle cx="157.845" cy="22.2066" r="0.728122" fill="#1B1C1C"/>
<path d="M64.4886 272.752C64.3702 272.752 64.2502 272.712 64.15 272.633L47.1678 259.078C46.9332 258.891 46.8938 258.549 47.082 258.315C47.2696 258.08 47.612 258.044 47.8451 258.229L64.8273 271.784C65.0619 271.971 65.1013 272.312 64.9131 272.547C64.806 272.682 64.6473 272.752 64.4886 272.752Z" fill="#1B1C1C"/>
<path d="M53.9786 264.361C53.8768 264.361 53.7736 264.332 53.6817 264.272C53.4312 264.109 53.3598 263.771 53.5238 263.52L130 146.149C130.165 145.896 130.501 145.828 130.753 145.99C131.003 146.153 131.074 146.491 130.91 146.742L54.4341 264.114C54.3301 264.274 54.1562 264.361 53.9786 264.361Z" fill="#1B1C1C"/>
<path d="M196.098 8.74277C195.798 8.74277 195.555 8.49981 195.555 8.19915V0.543624C195.555 0.24296 195.798 0 196.098 0C196.399 0 196.642 0.24296 196.642 0.543624V8.19915C196.642 8.49981 196.398 8.74277 196.098 8.74277Z" fill="#FFD141"/>
<path d="M199.996 4.91539H192.128C191.827 4.91539 191.584 4.67243 191.584 4.37176C191.584 4.0711 191.827 3.82814 192.128 3.82814H199.996C200.296 3.82814 200.539 4.0711 200.539 4.37176C200.539 4.67243 200.296 4.91539 199.996 4.91539Z" fill="#FFD141"/>
<path d="M204.524 23.4555C204.223 23.4555 203.98 23.2126 203.98 22.9119V17.4521C203.98 17.1515 204.223 16.9085 204.524 16.9085C204.825 16.9085 205.068 17.1515 205.068 17.4521V22.9119C205.067 23.2126 204.824 23.4555 204.524 23.4555Z" fill="#FFD141"/>
<path d="M207.308 20.726H201.696C201.395 20.726 201.152 20.483 201.152 20.1824C201.152 19.8817 201.395 19.6387 201.696 19.6387H207.308C207.609 19.6387 207.852 19.8817 207.852 20.1824C207.852 20.4823 207.609 20.726 207.308 20.726Z" fill="#FFD141"/>
<path d="M188.225 29.0747C187.925 29.0747 187.682 28.8318 187.682 28.5311V20.8756C187.682 20.5749 187.925 20.332 188.225 20.332C188.526 20.332 188.769 20.5749 188.769 20.8756V28.5311C188.769 28.8318 188.525 29.0747 188.225 29.0747Z" fill="#FFD141"/>
<path d="M192.123 25.2474H184.255C183.954 25.2474 183.711 25.0044 183.711 24.7037C183.711 24.4031 183.954 24.1601 184.255 24.1601H192.123C192.423 24.1601 192.666 24.4031 192.666 24.7037C192.666 25.0044 192.423 25.2474 192.123 25.2474Z" fill="#FFD141"/>
<path d="M195.53 40.1439C195.229 40.1439 194.986 39.9009 194.986 39.6003V31.9447C194.986 31.6441 195.229 31.4011 195.53 31.4011C195.831 31.4011 196.074 31.6441 196.074 31.9447V39.6003C196.074 39.9009 195.831 40.1439 195.53 40.1439Z" fill="#FFD141"/>
<path d="M199.427 36.315H191.559C191.259 36.315 191.016 36.072 191.016 35.7714C191.016 35.4707 191.259 35.2277 191.559 35.2277H199.427C199.727 35.2277 199.97 35.4707 199.97 35.7714C199.97 36.072 199.727 36.315 199.427 36.315Z" fill="#FFD141"/>
<path d="M158.178 59.6467C158.131 59.6467 158.084 59.6407 158.036 59.6278C157.639 59.5215 148.282 56.9765 144.404 53.5818C141.433 50.9822 140.236 47.0363 140.981 44.9826C141.284 44.1512 141.912 43.6645 142.709 43.6463C142.729 43.6463 142.749 43.6455 142.77 43.6455C145.39 43.6455 147.797 47.3628 147.899 47.5215C148.061 47.7743 147.987 48.1107 147.734 48.2716C147.484 48.4318 147.147 48.362 146.984 48.1069C146.379 47.1631 144.452 44.732 142.772 44.732C142.759 44.732 142.746 44.7328 142.732 44.7328C142.514 44.7373 142.202 44.8072 142.004 45.3523C141.465 46.8374 142.391 50.3748 145.12 52.7641C148.457 55.6827 156.479 58.0576 158.051 58.5033C159.414 57.369 166.778 51.1264 167.74 47.9649C168.194 46.473 168.119 45.3235 167.527 44.729C166.98 44.18 165.954 44.0783 164.706 44.4518C162.276 45.1822 162.258 48.6148 162.258 48.6497C162.259 48.8745 162.12 49.0772 161.911 49.1584C161.698 49.2382 161.462 49.1843 161.311 49.0165C161.244 48.9436 159.668 47.1715 159.101 44.2264C158.55 41.3556 158.827 37.86 158.84 37.7127C158.864 37.4144 159.136 37.2025 159.426 37.2162C159.725 37.2405 159.947 37.5024 159.922 37.8023C159.92 37.8365 159.645 41.2987 160.168 44.0206C160.425 45.3561 160.918 46.4289 161.345 47.1654C161.632 45.8367 162.39 44.013 164.393 43.4124C166.059 42.9121 167.446 43.1087 168.295 43.9621C168.924 44.5938 169.518 45.8549 168.779 48.2823C167.627 52.0649 158.891 59.2223 158.521 59.5253C158.423 59.6042 158.302 59.6467 158.178 59.6467Z" fill="#1B1C1C"/>
<path d="M146.627 47.2672C146.516 47.2672 146.403 47.233 146.307 47.1624C146.065 46.9855 146.011 46.6453 146.189 46.4039C146.2 46.3879 147.336 44.8178 147.655 43.1323C147.979 41.4141 147.298 37.3225 147.29 37.2807C147.24 36.9846 147.44 36.7045 147.736 36.6543C148.029 36.6035 148.312 36.8039 148.362 37.1C148.392 37.2762 149.083 41.4262 148.723 43.3335C148.358 45.2665 147.118 46.9726 147.066 47.0455C146.959 47.1905 146.793 47.2672 146.627 47.2672Z" fill="#1B1C1C"/>
<path d="M418.438 333.563L163.575 353.074C155.615 353.684 148.667 347.724 148.057 339.763L128.955 81.9118L411.584 61.0574L431.748 318.046C432.358 326.006 426.398 332.954 418.438 333.563Z" fill="white"/>
<path d="M162.811 151.16L271.717 141.87L271.934 144.412L163.027 153.703L162.811 151.16Z" fill="#57B9A2"/>
<path d="M163.967 164.698L333.401 150.244L333.582 152.363L164.148 166.817L163.967 164.698Z" fill="#57B9A2"/>
<path d="M164.518 171.195L333.952 156.741L334.133 158.86L164.698 173.314L164.518 171.195Z" fill="#57B9A2"/>
<path d="M165.076 177.692L334.51 163.238L334.691 165.357L165.257 179.811L165.076 177.692Z" fill="#57B9A2"/>
<path d="M165.627 184.19L335.061 169.736L335.242 171.855L165.808 186.309L165.627 184.19Z" fill="#57B9A2"/>
<path d="M166.184 190.688L335.618 176.234L335.799 178.353L166.364 192.807L166.184 190.688Z" fill="#57B9A2"/>
<path d="M174.791 240.804L283.698 231.513L283.915 234.056L175.008 243.347L174.791 240.804Z" fill="#57B9A2"/>
<path d="M175.947 254.34L345.381 239.886L345.562 242.005L176.128 256.459L175.947 254.34Z" fill="#57B9A2"/>
<path d="M176.498 260.838L345.932 246.384L346.113 248.503L176.679 262.957L176.498 260.838Z" fill="#57B9A2"/>
<path d="M177.057 267.336L346.491 252.882L346.672 255.001L177.237 269.455L177.057 267.336Z" fill="#57B9A2"/>
<path d="M177.605 273.834L347.04 259.38L347.22 261.499L177.786 275.953L177.605 273.834Z" fill="#57B9A2"/>
<path d="M178.164 280.331L347.598 265.877L347.779 267.996L178.345 282.45L178.164 280.331Z" fill="#57B9A2"/>
<path d="M268.542 104.149C268.467 104.149 268.393 104.145 268.323 104.137C267.858 104.083 267.481 103.856 267.231 103.483C265.77 101.29 267.086 96.7597 268.479 91.9635C269.814 87.3662 271.327 82.1563 269.231 81.2839C265.618 79.7692 257.36 88.0367 254.484 91.3462C254.393 91.451 254.266 91.5171 254.128 91.5307L155.175 101.17C154.879 101.192 154.61 100.98 154.581 100.682C154.552 100.383 154.77 100.117 155.069 100.087L253.806 90.4693C255.441 88.6129 264.838 78.2879 269.649 80.2802C272.641 81.5276 271.126 86.7437 269.521 92.2664C268.318 96.4112 266.954 101.109 268.135 102.88C268.207 102.989 268.297 103.04 268.447 103.057C270.572 103.254 277.459 96.8751 282.975 91.7099C289.879 85.2419 294.206 81.2975 296.019 81.7873C296.415 81.8913 296.706 82.1821 296.838 82.6042C297.599 85.0414 296.238 88.7132 295.036 91.9552C294.228 94.1319 293.313 96.5995 293.7 97.3754C293.748 97.4711 293.812 97.5227 293.924 97.5569C294.887 97.8401 297.964 94.3271 300.215 91.7593C304.004 87.4361 307.586 83.3544 309.681 84.8782C311.802 86.4202 310.674 88.5195 309.929 89.9105C309.642 90.4442 309.249 91.1754 309.342 91.4252C309.368 91.4943 309.489 91.5505 309.56 91.5778C311.654 92.4001 315.444 91.5626 315.481 91.5535C315.778 91.4928 316.065 91.6735 316.13 91.965C316.195 92.2581 316.012 92.5489 315.719 92.6142C315.55 92.6506 311.557 93.5268 309.163 92.5899C308.736 92.4221 308.452 92.1556 308.321 91.7987C308.06 91.0911 308.482 90.3053 308.971 89.3957C309.832 87.7922 310.302 86.6723 309.042 85.7566C307.733 84.8015 303.863 89.2431 301.032 92.4752C297.44 96.5737 295.161 99.0716 293.612 98.5963C293.214 98.4771 292.908 98.2228 292.726 97.8598C292.131 96.6625 292.963 94.4174 294.017 91.5763C295.158 88.4983 296.451 85.0095 295.801 82.9284C294.405 82.4782 288.481 88.0397 283.718 92.5018C276.239 99.5082 271.089 104.149 268.542 104.149Z" fill="#1B1C1C"/>
<path d="M409.438 241.52C408.638 241.52 388.987 241.285 377.517 222.26C365.832 202.881 380.245 184.376 380.392 184.191C380.58 183.956 380.92 183.919 381.156 184.104C381.39 184.291 381.43 184.632 381.243 184.868C381.101 185.047 367.158 202.976 378.448 221.7C389.612 240.216 408.717 240.433 409.427 240.433C409.444 240.433 409.449 240.433 409.454 240.433C409.75 240.433 409.993 240.672 409.997 240.97C410.002 241.27 409.762 241.516 409.461 241.52C409.458 241.52 409.45 241.52 409.438 241.52Z" fill="#1B1C1C"/>
<ellipse cx="291.789" cy="373.242" rx="139.496" ry="3.54418" fill="#1B1C1C"/>
<path fill-rule="evenodd" clip-rule="evenodd" d="M152.701 350.045C155.445 352.399 158.867 353.661 162.443 353.661C162.832 353.661 163.222 353.647 163.613 353.617L418.475 334.105C422.47 333.799 426.107 331.956 428.715 328.915C431.324 325.874 432.593 321.999 432.286 318.003L412.01 60.8046C411.986 60.5054 411.716 60.2625 411.426 60.3058L128.908 82.3666C128.61 82.3886 128.386 82.6498 128.408 82.9481L147.51 339.803C147.817 343.799 149.66 347.436 152.701 350.045ZM148.6 339.723L129.537 83.4082L410.974 61.431L431.206 318.088C431.49 321.793 430.313 325.387 427.894 328.208C425.475 331.03 422.101 332.738 418.396 333.023L163.534 352.533C159.823 352.825 156.235 351.639 153.414 349.221C150.592 346.802 148.883 343.427 148.6 339.723Z" fill="#1B1C1C"/>
<path d="M134.477 163.136C134.477 163.136 125.996 161.109 123.817 162.758C121.637 164.406 134.851 168.018 134.851 168.018L134.477 163.136Z" fill="white"/>
<path d="M132.262 141.071C132.262 141.071 128.12 141.263 128.599 143.602C129.077 145.942 132.37 147.923 132.37 147.923C132.37 147.923 129.024 148.6 129.822 150.78C130.619 152.959 133.392 155.246 133.392 155.246C133.392 155.246 129.609 154.927 130.406 157.797C131.854 162.114 135.722 163.529 139.55 164.252C143.377 164.975 145.398 163.965 144.813 162.263C144.228 160.562 139.6 157.098 139.6 157.098C139.6 157.098 143.058 157.958 143.218 156.362C143.378 154.767 138.07 150.42 138.07 150.42C138.07 150.42 144.281 152.004 144.495 149.558C144.707 147.112 132.376 142.574 132.376 142.574L132.262 141.071Z" fill="white"/>
<path fill-rule="evenodd" clip-rule="evenodd" d="M134.723 168.276C134.764 168.286 134.805 168.29 134.847 168.29C134.975 168.29 135.102 168.245 135.199 168.16C135.332 168.047 135.401 167.879 135.389 167.706L135.015 162.823C134.995 162.573 134.807 162.368 134.559 162.329C132.227 161.953 124.524 160.844 123.294 162.32C123.058 162.606 123 162.964 123.131 163.332C123.957 165.646 132.932 167.857 134.723 168.276ZM124.131 163.015C124.328 162.771 125.205 162.654 126.512 162.654C128.366 162.654 131.087 162.89 133.963 163.335L134.248 167.043C130.088 166.013 124.588 164.189 124.131 163.015Z" fill="#1B1C1C"/>
<path d="M141.977 151.287C141.969 151.287 141.962 151.287 141.953 151.287C141.778 151.279 137.631 151.089 134.621 149.714C131.519 148.295 128.31 146.444 128.035 143.465C127.968 142.729 128.187 142.084 128.669 141.599C129.934 140.329 132.598 140.521 132.896 140.549C133.195 140.575 133.415 140.839 133.39 141.137C133.364 141.436 133.094 141.651 132.801 141.631C132.124 141.573 130.207 141.591 129.439 142.367C129.18 142.626 129.079 142.943 129.118 143.365C129.342 145.792 132.255 147.437 135.074 148.724C137.892 150.012 141.959 150.198 142 150.199C142.299 150.212 142.533 150.465 142.52 150.765C142.508 151.059 142.267 151.287 141.977 151.287Z" fill="#1B1C1C"/>
<path d="M140.84 157.666C140.832 157.666 140.825 157.666 140.818 157.666C140.634 157.658 136.293 157.453 132.869 155.014C129.696 152.753 129.265 150.758 129.208 150.2C129.155 149.674 129.266 149.247 129.53 148.963C130.127 148.323 131.942 147.515 132.147 147.425C132.423 147.307 132.742 147.429 132.863 147.704C132.983 147.979 132.859 148.299 132.584 148.421C131.888 148.727 130.661 149.344 130.327 149.704C130.306 149.73 130.255 149.879 130.301 150.178C130.441 151.086 131.355 152.6 133.5 154.129C136.654 156.377 140.821 156.579 140.862 156.58C141.163 156.592 141.395 156.846 141.382 157.145C141.371 157.438 141.13 157.666 140.84 157.666Z" fill="#1B1C1C"/>
<path d="M142.697 164.895C140.825 164.895 134.931 164.688 132.545 162.176C129.612 159.087 129.595 156.562 130.298 155.62C130.979 154.708 133.377 154.635 134.126 154.635C134.46 154.628 134.685 154.874 134.685 155.179C134.685 155.479 134.441 155.722 134.142 155.722C134.142 155.721 134.136 155.722 134.131 155.722C132.77 155.722 131.387 155.977 131.168 156.269C130.793 156.774 130.815 158.774 133.332 161.427C135.791 164.016 143.16 163.808 143.232 163.801C143.543 163.799 143.783 164.025 143.794 164.326C143.804 164.627 143.569 164.877 143.269 164.888C143.222 164.889 143.019 164.895 142.697 164.895Z" fill="#1B1C1C"/>
<path d="M412.134 61.7673L128.443 83.4849L127.282 68.3227C126.994 64.5599 129.811 61.2761 133.574 60.9876L403.639 40.3132C407.402 40.0254 410.685 42.8422 410.974 46.6051L412.134 61.7673Z" fill="#EE4266"/>
<path d="M216.932 54.9401C216.932 54.9401 214.824 44.6682 216.1 43.9234C217.375 43.1793 220.033 44.8801 221.416 48.1228C222.798 51.3656 222.688 54.4626 222.688 54.4626L216.932 54.9401Z" fill="white"/>
<path d="M239.096 58.5291C239.096 58.5291 239.149 52.5219 237.288 50.8736C235.427 49.2253 233.15 53.3237 233.15 53.3237C233.15 53.3237 232.611 49.7044 230.537 50.0232C228.464 50.3421 227.768 53.736 227.768 53.736C227.768 53.736 227.985 49.2928 225.222 50.0035C222.457 50.7142 222.346 54.1513 222.346 54.1513C222.346 54.1513 222.138 59.3271 224.212 59.9117C228.105 60.5146 227.72 54.9189 227.72 54.9189C227.72 54.9189 229.528 60.7089 231.813 59.6452C234.1 58.5823 233.462 55.4451 233.462 55.4451C233.462 55.4451 234.206 58.5815 236.439 59.4319C238.671 60.2838 238.884 59.5389 239.096 58.5291Z" fill="white"/>
<path d="M216.979 55.0062C216.736 55.0062 216.515 54.8429 216.453 54.5962C216.075 53.1081 214.253 45.5922 215.497 43.786C215.919 43.1748 216.515 42.8627 217.228 42.9212C218.682 43.0351 220.399 44.729 221.602 47.2368C223.165 50.4932 223.231 54.0093 223.232 54.1573C223.237 54.458 222.997 54.704 222.696 54.7086C222.431 54.7397 222.15 54.4717 222.146 54.1725C222.146 54.1384 222.079 50.7422 220.621 47.7075C219.499 45.3682 218.022 44.0745 217.143 44.0054C216.831 43.9811 216.596 44.1071 216.393 44.4032C215.684 45.432 216.618 50.8265 217.506 54.3297C217.581 54.6205 217.404 54.9166 217.114 54.9895C217.068 55.0009 217.023 55.0062 216.979 55.0062Z" fill="#1B1C1C"/>
<path d="M224.814 60.485C224.61 60.485 224.481 60.4652 224.465 60.4614C224.169 60.4128 223.969 60.1327 224.017 59.8366C224.068 59.5412 224.35 59.3476 224.639 59.3886C224.686 59.3962 225.465 59.4987 226.165 58.9133C226.884 58.3105 227.29 57.1443 227.338 55.54C227.416 52.9 227.442 51.0012 227.048 50.6079C226.983 50.5433 226.842 50.4697 226.412 50.4833C225.362 50.513 224.144 51.7019 223.763 52.1575C223.571 52.3913 223.227 52.4187 222.998 52.2266C222.768 52.033 222.737 51.6913 222.929 51.4613C222.998 51.3785 224.632 49.447 226.38 49.3969C226.824 49.3817 227.399 49.4212 227.818 49.8395C228.511 50.5335 228.534 51.8857 228.425 55.5718C228.366 57.5375 227.833 58.9482 226.841 59.7644C226.088 60.3847 225.267 60.485 224.814 60.485Z" fill="#1B1C1C"/>
<path d="M232.156 60.2033C231.974 60.2033 231.794 60.1106 231.692 59.9428C231.536 59.687 231.615 59.3552 231.871 59.198C231.95 59.1471 233.731 57.984 233.268 55.0396C232.782 51.9555 232.079 50.9571 231.574 50.6648C231.416 50.5722 231.153 50.4697 230.711 50.6359C229.233 51.1932 228.639 53.3245 228.633 53.3457C228.558 53.6365 228.267 53.8157 227.971 53.7344C227.68 53.6593 227.506 53.3617 227.582 53.0724C227.61 52.963 228.304 50.3816 230.329 49.6201C230.969 49.3794 231.589 49.4166 232.121 49.7264C233.18 50.3429 233.885 51.9775 234.341 54.871C234.923 58.564 232.54 60.0636 232.439 60.1251C232.35 60.1775 232.252 60.2033 232.156 60.2033Z" fill="#1B1C1C"/>
<path d="M238.87 60.2329C238.828 60.2329 238.787 60.2283 238.745 60.2177C238.453 60.1486 238.273 59.8555 238.342 59.564C238.667 58.1867 239.252 54.2394 238.051 52.5394C236.861 50.8561 236.632 50.9791 235.877 51.3891L235.594 51.5402C234.848 51.9244 234.18 53.1293 233.986 53.5614C233.863 53.8339 233.54 53.9554 233.268 53.8339C232.995 53.7109 232.872 53.3905 232.995 53.1164C233.082 52.9221 233.879 51.2008 235.097 50.5745L235.361 50.434C236.654 49.7347 237.436 49.7864 238.938 51.9115C240.67 54.3608 239.452 59.5936 239.399 59.8145C239.339 60.0651 239.117 60.2329 238.87 60.2329Z" fill="#1B1C1C"/>
<path d="M476.081 48.602C476.081 48.602 481.185 42.9668 487.245 47.0068C493.306 51.0467 490.222 56.2567 491.924 58.4897C493.625 60.7226 507.234 59.0212 509.042 70.8229C510.849 82.6247 506.277 86.7718 506.277 86.7718C506.277 86.7718 511.7 86.9844 512.125 90.2803C512.55 93.5762 509.892 94.7454 509.892 94.7454C509.892 94.7454 513.294 95.0643 512.763 98.1476C512.231 101.231 507.978 100.168 507.978 100.168C507.978 100.168 506.809 102.295 502.662 101.444C498.516 100.593 499.897 96.765 499.897 96.765L462.047 109.311C462.047 109.311 453.009 110.268 452.584 99.9547C452.159 89.6417 463.429 93.2565 467.044 90.9173C470.659 88.578 469.334 82.2148 467.019 79.6014C464.705 76.9888 461.196 75.9251 460.77 71.4068C460.345 66.8878 464.172 65.6122 463.747 62.9541C463.322 60.2959 464.172 54.2887 467.203 52.3215C470.233 50.3543 469.701 49.5039 471.615 48.813C473.529 48.1236 476.081 48.602 476.081 48.602Z" fill="#1B1C1C"/>
<path d="M360.9 121.469L332.76 94.1084L334.779 90.9894L374.367 97.6526L360.9 121.469Z" fill="#57B9A2"/>
<path d="M531.965 192.705L550.647 205.04C550.647 205.04 551.569 209.079 549.512 213.049C547.457 217.018 542.991 219.853 542.991 219.853L524.072 208.503L531.965 192.705Z" fill="#57B9A2"/>
<path d="M467.784 60.51C467.784 60.51 463.957 71.4615 466.189 77.6281C468.422 83.7948 472.675 87.3032 475.12 87.6229C477.566 87.9418 482.031 85.3899 482.031 85.3899V88.0481L489.154 87.304C489.154 87.304 488.835 83.3703 491.068 82.5192C493.301 81.6688 498.085 73.163 493.62 70.0796C489.154 66.9963 485.54 71.7804 485.54 71.7804C485.54 71.7804 480.542 70.3985 477.778 64.976C475.013 59.5534 475.226 54.7693 475.226 54.7693C475.226 54.7693 474.162 58.2778 471.717 59.3416C469.273 60.4037 467.784 60.51 467.784 60.51Z" fill="white"/>
<path d="M487.562 369.698L466.085 290.168C466.085 290.168 460.981 321.64 459.493 335.887C458.005 350.135 457.792 365.871 457.792 365.871L437.378 366.084C437.378 366.084 437.023 299.313 439.433 264.439C441.843 229.565 445.766 187.732 445.766 187.732C445.766 187.732 467.361 181.599 483.309 184.53C499.257 187.461 503.715 192.325 503.715 192.325C503.715 192.325 509.873 201.921 503.715 222.973C497.557 244.025 486.925 261.037 488.413 272.307C489.902 283.577 508.402 360.768 508.402 360.768L487.562 369.698Z" fill="#1DAA6B"/>
<path d="M360.896 121.469L426.41 158.149H442.268L452.57 145.002L449.092 139.809L374.363 97.6526C374.363 97.6526 366.283 95.5259 360.187 103.89C354.092 112.254 360.896 121.469 360.896 121.469Z" fill="#EE4266"/>
<path d="M423.559 158.539C423.559 158.539 441.846 157.477 448.226 141.954C454.605 126.431 458.858 111.19 463.749 103.606C468.64 96.0225 472.892 94.5336 472.892 94.5336C472.892 94.5336 471.971 88.9341 476.649 85.9571C481.328 82.9801 489.661 82.1297 491.15 83.2633C492.639 84.3976 491.251 88.7215 491.251 88.7215C491.251 88.7215 495.575 88.8635 499.686 94.7462C503.798 100.63 503.726 113.885 504.365 122.178C505.003 130.471 502.663 150.247 502.026 154.287C501.388 158.327 502.882 167.046 504.474 168.96C506.066 170.874 509.043 188.845 509.043 188.845C509.043 188.845 507.555 192.564 497.135 193.626C486.715 194.69 478.423 192.564 478.423 192.564L476.509 187.035L473.319 192.351C473.319 192.351 464.388 193.201 457.371 191.926C450.354 190.649 439.509 184.529 439.509 184.529L442.061 178.031C442.061 178.031 438.499 180.017 434.512 181.133C430.525 182.249 423.56 181.877 423.56 181.877V158.539H423.559Z" fill="#EDEDED"/>
<path d="M469.597 151.736L531.478 188.205C531.478 188.205 533.178 195.86 530.308 201.389C527.438 206.918 520.632 210.958 520.632 210.958L450.324 173.704C450.324 173.704 457.476 168.428 462.474 162.368C467.471 156.308 469.597 151.736 469.597 151.736Z" fill="#EE4266"/>
<path d="M470.06 152.01L469.594 151.736C469.594 151.736 467.467 156.308 462.47 162.368C457.473 168.428 450.32 173.705 450.32 173.705L457.606 177.565L470.06 152.01Z" fill="#1B1C1C"/>
<path d="M410.127 149.032C410.127 149.032 410.48 163.325 414.52 168.428C418.56 173.532 423.557 175.765 423.557 175.765V158.539L422.063 155.715L410.127 149.032Z" fill="white"/>
<path d="M334.777 90.9894L327.121 89.1908L332.756 94.1084C332.756 94.1084 334.298 94.1616 334.777 93.072C335.256 91.9818 334.777 90.9894 334.777 90.9894Z" fill="#1B1C1C"/>
<path d="M456.623 379.373L460.93 396.81L424.514 400C424.514 400 435.359 394.365 438.283 391.654C441.207 388.942 445.034 386.178 445.034 386.178C445.034 386.178 448.064 381.074 450.51 379.586C452.955 378.098 456.623 379.373 456.623 379.373Z" fill="#1B1C1C"/>
<path d="M509.817 373.242L521.229 387.419L502.942 395.713L481.678 396.28C481.678 396.28 495.075 389.546 496.492 387.986C497.91 386.427 499.682 382.741 499.682 382.741C499.682 382.741 504.289 375.015 506.345 373.952C508.4 372.888 509.817 373.242 509.817 373.242Z" fill="#1B1C1C"/>
<path d="M442.693 366.028L445.035 386.179C445.035 386.179 447.268 387.879 449.181 385.541C451.095 383.202 450.776 380.862 453.434 380.225C456.093 379.587 456.624 379.374 456.624 379.374L454.713 365.904L442.693 366.028Z" fill="white"/>
<path d="M492.986 367.373L499.684 382.74C499.684 382.74 504.575 383.874 505.922 381.464C507.269 379.055 507.339 376.713 507.977 375.19C508.615 373.667 509.82 373.242 509.82 373.242L505.339 362.079L492.986 367.373Z" fill="white"/>
<path d="M445.033 386.721C444.761 386.721 444.526 386.518 444.494 386.241L442.152 366.09C442.118 365.792 442.331 365.522 442.63 365.487C442.923 365.463 443.197 365.667 443.232 365.965L445.574 386.116C445.608 386.414 445.395 386.683 445.096 386.718C445.075 386.721 445.054 386.721 445.033 386.721Z" fill="#1B1C1C"/>
<path d="M456.622 379.917C456.356 379.917 456.123 379.722 456.085 379.45L454.173 365.979C454.131 365.682 454.338 365.407 454.635 365.364C454.921 365.323 455.207 365.528 455.249 365.826L457.161 379.297C457.204 379.594 456.996 379.869 456.7 379.912C456.674 379.915 456.648 379.917 456.622 379.917Z" fill="#1B1C1C"/>
<path d="M499.686 383.284C499.477 383.284 499.278 383.161 499.188 382.958L492.491 367.591C492.371 367.316 492.496 366.996 492.771 366.876C493.047 366.758 493.366 366.881 493.486 367.156L500.184 382.523C500.304 382.798 500.178 383.118 499.903 383.238C499.832 383.269 499.759 383.284 499.686 383.284Z" fill="#1B1C1C"/>
<path d="M509.821 373.785C509.605 373.785 509.401 373.657 509.316 373.444L504.836 362.282C504.724 362.002 504.86 361.687 505.137 361.575C505.415 361.463 505.732 361.597 505.844 361.876L510.325 373.039C510.436 373.318 510.301 373.634 510.023 373.746C509.956 373.772 509.888 373.785 509.821 373.785Z" fill="#1B1C1C"/>
<path d="M466.088 290.712C465.845 290.712 465.625 290.549 465.562 290.306C465.519 290.141 461.28 273.703 459.653 257.476C458.089 241.894 459.511 211.949 459.642 209.308L453.733 200.741C453.562 200.493 453.625 200.155 453.871 199.985C454.117 199.814 454.456 199.875 454.627 200.123L460.641 208.843C460.71 208.941 460.743 209.061 460.736 209.179C460.721 209.497 459.115 241.222 460.734 257.368C462.354 273.51 466.573 289.868 466.615 290.032C466.691 290.323 466.516 290.619 466.226 290.696C466.179 290.707 466.132 290.712 466.088 290.712Z" fill="#1B1C1C"/>
<path d="M493.941 352.167C493.695 352.167 493.471 351.999 493.412 351.749C493.317 351.346 483.812 311.266 480.458 301.834C476.863 291.725 474.969 271.035 480.437 243.281C485.887 215.607 484.901 193.901 484.89 193.684C484.875 193.385 485.106 193.13 485.406 193.115C485.715 193.065 485.961 193.332 485.975 193.631C485.985 193.848 486.981 215.679 481.502 243.492C476.079 271.03 477.935 291.497 481.481 301.469C484.855 310.957 494.373 351.094 494.469 351.498C494.538 351.79 494.357 352.083 494.066 352.152C494.023 352.163 493.982 352.167 493.941 352.167Z" fill="#1B1C1C"/>
<path d="M447.799 355.357C447.788 355.357 447.776 355.357 447.764 355.356C447.465 355.337 447.238 355.078 447.257 354.779C447.289 354.282 450.437 304.921 449.78 293.604C449.116 282.18 458.539 236.703 458.94 234.773C459 234.478 459.295 234.288 459.582 234.352C459.876 234.413 460.065 234.7 460.003 234.994C459.905 235.466 450.209 282.26 450.865 293.54C451.526 304.924 448.374 354.352 448.342 354.849C448.324 355.136 448.084 355.357 447.799 355.357Z" fill="#1B1C1C"/>
<path d="M483.544 355.357C483.313 355.357 483.099 355.209 483.026 354.978C482.935 354.691 483.093 354.386 483.38 354.295L505.176 347.385C505.466 347.296 505.768 347.453 505.859 347.738C505.95 348.025 505.791 348.331 505.505 348.421L483.708 355.332C483.653 355.348 483.597 355.357 483.544 355.357Z" fill="#1B1C1C"/>
<path d="M458.117 356.018C458.117 356.018 458.106 356.018 458.101 356.018L437.343 355.357C437.042 355.347 436.807 355.096 436.817 354.797C436.827 354.497 437.082 354.272 437.377 354.27L458.135 354.932C458.436 354.942 458.671 355.193 458.661 355.492C458.651 355.786 458.411 356.018 458.117 356.018Z" fill="#1B1C1C"/>
<path d="M469.594 152.279C469.476 152.279 469.356 152.241 469.256 152.16C469.021 151.973 468.982 151.632 469.17 151.397C469.269 151.272 479.19 138.799 483.269 131.999C487.324 125.24 490.09 113.35 490.118 113.23C490.185 112.939 490.475 112.755 490.769 112.822C491.061 112.889 491.244 113.181 491.177 113.474C491.064 113.967 488.345 125.652 484.202 132.556C480.084 139.419 470.12 151.947 470.02 152.073C469.912 152.209 469.754 152.279 469.594 152.279Z" fill="#1B1C1C"/>
<path d="M480.811 92.8435C480.665 92.8435 480.521 92.785 480.414 92.6712C480.209 92.4517 480.221 92.1086 480.44 91.9028C480.548 91.8011 483.14 89.4003 486.492 88.6851C489.793 87.982 491.263 88.1734 491.323 88.1832C491.62 88.225 491.827 88.4998 491.785 88.7967C491.743 89.0951 491.465 89.3001 491.172 89.2591C491.163 89.2598 489.792 89.0936 486.718 89.748C483.669 90.3987 481.206 92.6734 481.181 92.6962C481.077 92.7949 480.944 92.8435 480.811 92.8435Z" fill="#1B1C1C"/>
<path d="M480.12 158.693C479.869 158.693 479.643 158.516 479.59 158.26C479.528 157.966 479.717 157.678 480.011 157.617C480.059 157.607 484.795 156.61 489.673 154.327C494.429 152.101 496.938 146.98 496.963 146.928C497.093 146.657 497.418 146.543 497.688 146.674C497.958 146.804 498.072 147.128 497.943 147.399C497.835 147.623 495.249 152.918 490.134 155.312C485.136 157.652 480.43 158.641 480.233 158.681C480.195 158.689 480.158 158.693 480.12 158.693Z" fill="#1B1C1C"/>
<path d="M428.359 182.268C428.072 182.268 427.834 182.045 427.817 181.756L426.417 157.416C426.4 157.117 426.628 156.86 426.929 156.843C427.254 156.824 427.484 157.056 427.502 157.355L428.902 181.695C428.919 181.994 428.691 182.251 428.39 182.268C428.38 182.268 428.369 182.268 428.359 182.268Z" fill="#1B1C1C"/>
<path d="M423.556 176.308C423.486 176.308 423.416 176.295 423.348 176.266C423.19 176.2 419.419 174.594 414.117 168.794C408.742 162.914 409.546 149.562 409.583 148.996C409.603 148.695 409.903 148.463 410.16 148.489C410.459 148.508 410.686 148.767 410.667 149.066C410.659 149.2 409.857 162.523 414.919 168.062C420.035 173.658 423.728 175.247 423.764 175.262C424.041 175.379 424.172 175.697 424.056 175.974C423.97 176.183 423.769 176.308 423.556 176.308Z" fill="#1B1C1C"/>
<path d="M423.556 159.083C423.385 159.083 423.216 159.002 423.11 158.85L420.834 155.589C420.662 155.343 420.723 155.004 420.969 154.832C421.213 154.663 421.552 154.718 421.726 154.967L424.001 158.229C424.174 158.475 424.113 158.813 423.867 158.986C423.773 159.051 423.664 159.083 423.556 159.083Z" fill="#1B1C1C"/>
<path d="M507.698 204.648C507.495 204.648 507.3 204.534 507.207 204.337C507.078 204.066 507.193 203.743 507.465 203.614C507.534 203.581 514.49 200.219 517.625 193.689C520.762 187.155 519.329 181.542 519.314 181.485C519.237 181.195 519.41 180.898 519.701 180.821C519.994 180.741 520.288 180.917 520.365 181.207C520.43 181.452 521.914 187.268 518.605 194.16C515.298 201.044 508.229 204.453 507.93 204.596C507.855 204.631 507.777 204.648 507.698 204.648Z" fill="#1B1C1C"/>
<path d="M526.442 210.466C526.231 210.466 526.03 210.341 525.942 210.136C525.824 209.859 525.953 209.54 526.228 209.423C526.269 209.406 530.285 207.667 532.856 204.352C535.381 201.095 534.617 194.935 534.608 194.873C534.57 194.575 534.781 194.303 535.077 194.264C535.371 194.221 535.648 194.437 535.686 194.733C535.721 195.004 536.514 201.407 533.715 205.018C530.966 208.563 526.829 210.348 526.654 210.423C526.585 210.452 526.513 210.466 526.442 210.466Z" fill="#1B1C1C"/>
<path d="M484.43 75.8332C484.421 75.8332 484.411 75.8332 484.402 75.8325C484.102 75.8173 483.872 75.5622 483.887 75.2623C483.901 74.9874 484.058 72.5442 485.154 71.4045C485.362 71.1889 485.708 71.1813 485.922 71.3893C486.139 71.5974 486.146 71.9413 485.937 72.1577C485.244 72.8798 485.006 74.6837 484.972 75.3177C484.957 75.6077 484.717 75.8332 484.43 75.8332Z" fill="#1B1C1C"/>
<path d="M470.336 77.4816C469.857 77.4816 469.399 77.3851 469.132 77.086C468.938 76.8666 468.483 76.3533 470.205 72.1592C470.32 71.8821 470.638 71.7507 470.915 71.8631C471.192 71.9778 471.325 72.2951 471.211 72.573C470.611 74.0323 470.018 75.8264 470.006 76.3852C470.259 76.4414 470.97 76.3647 471.576 76.2007C471.862 76.1225 472.164 76.2941 472.243 76.5826C472.321 76.8711 472.15 77.1703 471.862 77.2492C471.52 77.3426 470.913 77.4816 470.336 77.4816Z" fill="#1B1C1C"/>
<path d="M471.819 82.8085C471.6 82.8085 471.47 82.7956 471.452 82.7933C471.153 82.7614 470.939 82.4949 470.97 82.198C471.001 81.8996 471.277 81.681 471.564 81.7129C471.582 81.7136 472.951 81.8404 474.691 81.0652C476.272 80.3629 476.509 79.5801 476.511 79.5718C476.59 79.2893 476.892 79.1185 477.166 79.1823C477.451 79.2536 477.631 79.527 477.571 79.814C477.543 79.9446 477.24 81.1229 475.133 82.0591C473.657 82.7151 472.411 82.8085 471.819 82.8085Z" fill="#1B1C1C"/>
<circle cx="474.273" cy="68.7547" r="0.757732" fill="#1B1C1C"/>
<circle cx="467.391" cy="69.6939" r="0.757732" fill="#1B1C1C"/>
<path d="M472.732 66.5552C472.46 66.5552 472.225 66.3502 472.193 66.0723C472.159 65.7747 472.374 65.5051 472.673 65.4717L475.49 65.1536C475.77 65.1217 476.056 65.3328 476.091 65.6334C476.125 65.9303 475.91 66.1998 475.611 66.234L472.793 66.5521C472.773 66.5544 472.753 66.5552 472.732 66.5552Z" fill="#1B1C1C"/>
<path d="M468.455 66.7154H466.462C466.161 66.7154 465.918 66.4724 465.918 66.1718C465.918 65.8711 466.161 65.6281 466.462 65.6281H468.455C468.755 65.6281 468.998 65.8711 468.998 66.1718C468.998 66.4724 468.755 66.7154 468.455 66.7154Z" fill="#1B1C1C"/>
<path d="M492.339 77.8308C492.259 77.8308 492.177 77.8126 492.1 77.7746C491.831 77.6433 491.72 77.3183 491.85 77.0488C491.858 77.0321 492.658 75.3549 491.999 73.8356C491.398 72.4454 488.866 72.5851 488.843 72.5927C488.555 72.6201 488.283 72.3893 488.261 72.0894C488.24 71.7902 488.465 71.5298 488.765 71.5078C488.903 71.5025 492.086 71.2937 492.997 73.4036C493.859 75.3906 492.869 77.4413 492.827 77.5271C492.732 77.7192 492.54 77.8308 492.339 77.8308Z" fill="#1B1C1C"/>
<path d="M487.7 78.5377L488.243 78.5347L487.7 78.5301C487.694 78.0047 487.75 76.1969 488.723 74.9798C489.774 73.6656 492.156 72.9534 492.257 72.9238C492.545 72.841 492.847 73.0035 492.932 73.2913C493.017 73.579 492.852 73.8812 492.564 73.9662C491.967 74.1424 490.266 74.7908 489.572 75.6594C488.804 76.6191 488.782 78.2089 488.787 78.518L487.7 78.5377Z" fill="#1B1C1C"/>
</svg>
