<svg width="229" height="509" viewBox="0 0 229 509" fill="none" xmlns="http://www.w3.org/2000/svg">
<path fill-rule="evenodd" clip-rule="evenodd" d="M1.41061 498.582C1.23979 498.582 1.06467 498.552 0.896 498.485C0.17189 498.2 -0.185868 497.382 0.0966859 496.657L131.962 159.459C132.247 158.734 133.068 158.377 133.788 158.661C134.515 158.944 134.873 159.763 134.588 160.488L2.72347 497.685C2.50537 498.242 1.9725 498.582 1.41061 498.582" fill="#1B1C1C"/>
<path fill-rule="evenodd" clip-rule="evenodd" d="M88.5517 508.763C88.3927 508.763 88.2294 508.735 88.0715 508.679C87.3388 508.412 86.9628 507.604 87.2271 506.871L210.214 167.224C210.478 166.491 211.291 166.113 212.021 166.379C212.753 166.644 213.13 167.453 212.866 168.186L89.8764 507.833C89.6691 508.406 89.1287 508.763 88.5517 508.763" fill="#1B1C1C"/>
<path fill-rule="evenodd" clip-rule="evenodd" d="M99.9214 477.352C99.8827 477.352 99.8451 477.351 99.8075 477.348L12.2578 470.277C11.4821 470.213 10.9041 469.532 10.9654 468.757C11.0309 467.98 11.7282 467.41 12.4834 467.464L100.033 474.535C100.809 474.598 101.387 475.279 101.326 476.054C101.264 476.793 100.648 477.352 99.9214 477.352" fill="#1B1C1C"/>
<path fill-rule="evenodd" clip-rule="evenodd" d="M127.81 400.338C127.757 400.338 127.703 400.335 127.651 400.328L43.4035 390.777C42.6299 390.69 42.0734 389.991 42.1615 389.217C42.2496 388.442 42.934 387.871 43.7193 387.975L127.966 397.526C128.74 397.613 129.296 398.311 129.208 399.085C129.127 399.805 128.516 400.338 127.81 400.338" fill="#1B1C1C"/>
<path fill-rule="evenodd" clip-rule="evenodd" d="M159.655 312.402C159.604 312.402 159.551 312.399 159.5 312.394L77.5957 303.361C76.8211 303.275 76.2635 302.578 76.3484 301.804C76.4333 301.03 77.1165 300.471 77.904 300.556L159.808 309.589C160.582 309.674 161.14 310.371 161.055 311.146C160.976 311.868 160.366 312.402 159.655 312.402" fill="#1B1C1C"/>
<path fill-rule="evenodd" clip-rule="evenodd" d="M190.943 225.999C190.906 225.999 190.87 225.998 190.832 225.994L110.342 219.746C109.565 219.684 108.984 219.007 109.045 218.231C109.106 217.454 109.775 216.876 110.559 216.933L191.05 223.181C191.826 223.243 192.406 223.92 192.347 224.698C192.289 225.437 191.672 225.999 190.943 225.999" fill="#1B1C1C"/>
<path fill-rule="evenodd" clip-rule="evenodd" d="M33.582 387.304L37.2584 374.332C37.2584 374.332 41.1197 371.525 43.6927 372.446C46.2669 373.365 49.8434 375.48 49.8434 375.48C49.8434 375.48 54.1257 383.071 58.0782 386.292C62.0308 389.512 68.8786 392.134 68.8786 392.134L33.582 387.304Z" fill="#1B1C1C"/>
<path fill-rule="evenodd" clip-rule="evenodd" d="M39.0984 356.253L37.8457 374.229C37.8457 374.229 41.9454 373.365 43.1874 374.815C44.4282 376.263 45.4628 379.161 46.289 379.369C47.1173 379.575 49.4615 379.369 49.4615 379.369L51.7359 356.253H39.0984Z" fill="white"/>
<path fill-rule="evenodd" clip-rule="evenodd" d="M49.4656 380.074C49.443 380.074 49.4194 380.073 49.3968 380.071C49.0079 380.033 48.7264 379.686 48.763 379.299L51.0384 356.184C51.0782 355.795 51.4359 355.53 51.8087 355.55C52.1966 355.589 52.4791 355.935 52.4426 356.322L50.1661 379.437C50.1295 379.803 49.8233 380.074 49.4656 380.074" fill="#1B1C1C"/>
<path fill-rule="evenodd" clip-rule="evenodd" d="M37.9632 375.037C37.9471 375.037 37.931 375.037 37.9138 375.036C37.526 375.008 37.2327 374.672 37.2595 374.283L38.5004 356.204C38.5272 355.816 38.8764 355.512 39.2514 355.548C39.6403 355.576 39.9336 355.913 39.9078 356.301L38.6648 374.38C38.639 374.752 38.3296 375.037 37.9632 375.037" fill="#1B1C1C"/>
<path fill-rule="evenodd" clip-rule="evenodd" d="M109.018 305.06L111.354 288.432L123.206 287.252C123.206 287.252 126.872 296.435 130.94 300.507C135.007 304.578 145.9 309.339 145.9 309.339L109.018 305.06Z" fill="#1B1C1C"/>
<path fill-rule="evenodd" clip-rule="evenodd" d="M111.357 275.912V288.432C111.357 288.432 114.88 288.501 115.846 289.811C116.811 291.122 118.259 292.847 119.018 293.537C119.776 294.228 122.67 294.434 122.67 294.434L123.993 276.815L111.357 275.912Z" fill="white"/>
<path fill-rule="evenodd" clip-rule="evenodd" d="M112.054 289.137C111.665 289.137 111.35 288.821 111.35 288.431V275.911C111.35 275.521 111.665 275.206 112.054 275.206C112.443 275.206 112.759 275.521 112.759 275.911V288.431C112.759 288.821 112.443 289.137 112.054 289.137" fill="#1B1C1C"/>
<path fill-rule="evenodd" clip-rule="evenodd" d="M121.463 296.118L122.838 276.762C122.869 276.374 123.223 276.077 123.593 276.111C123.982 276.141 124.273 276.479 124.245 276.867L122.932 296.295C122.93 296.297 121.463 296.119 121.463 296.118" fill="#1B1C1C"/>
<path fill-rule="evenodd" clip-rule="evenodd" d="M155.877 111.679H228.999V57.7039H155.877V111.679Z" fill="#57B9A2"/>
<path fill-rule="evenodd" clip-rule="evenodd" d="M88.369 23.7234C88.369 23.7234 91.5867 42.3996 86.8069 47.7364C82.0271 53.0722 75.6842 51.6001 75.6842 51.6001L78.2583 59.4209C78.2583 59.4209 73.3872 60.6166 69.9859 59.4209C66.5845 58.224 64.93 56.3842 64.93 56.3842C64.93 56.3842 66.0333 50.7721 64.93 49.1161C63.8266 47.4601 61.7123 43.4126 61.4373 43.3201C61.1612 43.2276 56.5651 43.0437 54.8182 38.9038C53.0724 34.7638 54.8182 33.2003 54.8182 33.2003C54.8182 33.2003 49.9471 33.568 50.2222 26.2999C50.4983 19.0307 62.3558 12.039 65.5735 11.4874C68.7901 10.9347 76.7876 10.8422 76.6038 7.25491C76.4201 3.66656 77.8909 1.27505 81.2912 3.48268C84.6926 5.69032 94.8957 9.64642 92.9651 15.9951C91.0345 22.3427 88.369 23.7234 88.369 23.7234" fill="white"/>
<path fill-rule="evenodd" clip-rule="evenodd" d="M31.6357 177.354C31.6357 177.354 24.8802 209.569 28.8617 235.514C32.8432 261.459 38.0828 284.367 38.0828 287.68C38.0828 290.992 32.0171 293.752 32.8443 297.064C33.6705 300.377 32.5693 299.824 32.8443 305.62C33.1183 311.417 32.8443 356.958 32.8443 356.958H52.4221L73.9306 207.085C73.9306 207.085 85.1167 214.262 94.8277 217.85C104.54 221.437 109.503 220.477 109.503 222.614V228.89C109.503 228.89 111.159 229.994 109.503 233.858C107.849 237.722 105.368 275.811 105.368 275.811L124.671 277.192C124.671 277.192 134.047 222.818 133.22 215.641C132.392 208.466 103.161 170.927 103.161 170.927C103.161 170.927 97.9218 166.787 86.3404 167.892C74.7589 168.996 31.6357 177.354 31.6357 177.354" fill="#57B9A2"/>
<path fill-rule="evenodd" clip-rule="evenodd" d="M29.3995 174.792C29.3995 174.792 42.7741 191.905 57.252 189.973C71.7288 188.04 83.7239 172.308 88.9635 171.618C94.2031 170.928 102.613 172.86 103.165 170.928C103.718 168.995 94.2031 146.501 94.2031 146.501C94.2031 146.501 109.783 157.403 116.953 154.919C124.124 152.435 148.666 125.249 148.666 125.249L135.98 107.721C135.98 107.721 118.194 131.045 116.126 128.422C114.058 125.801 113.644 123.178 112.541 124.42C111.438 125.663 109.095 124.696 107.578 122.626C106.061 120.556 101.787 79.477 101.787 79.477C101.787 79.477 129.731 68.0689 143.519 57.3964C157.306 46.7238 160.8 44.1473 160.8 44.1473L149.768 29.4273C149.768 29.4273 122.377 47.4604 112.266 51.1401C102.154 54.821 75.1291 56.6608 68.8797 56.292C62.6291 55.9242 57.8268 52.7961 50.2086 56.292C42.5904 59.7889 34.1331 87.758 30.8241 117.382C27.5151 147.007 29.3995 174.792 29.3995 174.792" fill="#EE4266"/>
<path fill-rule="evenodd" clip-rule="evenodd" d="M71.2183 226.018L52.4258 193.147C52.4258 193.147 64.0072 202.532 67.7299 204.188C71.4535 205.844 73.9342 207.086 73.9342 207.086L71.2183 226.018Z" fill="#1B1C1C"/>
<path fill-rule="evenodd" clip-rule="evenodd" d="M150.432 30.3108L153.264 28.415L152.804 26.2073L160.8 21.4232L161.996 23.9072C161.996 23.9072 167.509 20.4114 171.463 18.1112C175.416 15.8111 179.552 9.55492 180.931 10.8432C182.31 12.1303 180.103 15.3509 180.103 15.3509C180.103 15.3509 185.802 14.6154 190.122 14.339C194.443 14.0627 199.591 10.67 199.591 10.67C199.591 10.67 199.591 12.7744 199.038 13.6024C198.487 14.4304 196.558 15.3509 196.558 15.3509C196.558 15.3509 197.016 16.4553 196.833 17.4671C196.649 18.479 193.156 20.4899 193.156 20.4899C193.156 20.4899 192.604 23.3556 190.582 23.7233C188.559 24.0911 185.159 23.2631 181.666 25.5632C178.172 27.8633 174.87 32.1356 172.294 31.9775C169.716 31.8194 168.338 31.9818 168.338 31.9818L157.954 40.35L150.432 30.3108Z" fill="white"/>
<path fill-rule="evenodd" clip-rule="evenodd" d="M136.908 109.004C136.908 109.004 144.254 99.2584 148.849 97.4175C153.446 95.5776 170.909 90.2418 171.829 92.9097C172.747 95.5776 161.35 98.982 160.798 99.5337C160.247 100.086 161.534 102.57 160.798 104.318C160.064 106.066 159.235 106.986 159.235 106.986C159.235 106.986 161.35 108.518 161.534 109.776C161.718 111.034 159.511 113.611 159.511 113.611C159.511 113.611 160.522 115.451 158.959 116.83C157.397 118.211 152.157 117.842 150.503 118.486C148.849 119.13 145.729 121.192 145.729 121.192L136.908 109.004Z" fill="white"/>
<path fill-rule="evenodd" clip-rule="evenodd" d="M43.5632 357.663C43.5374 357.663 43.5105 357.662 43.4837 357.659C43.0969 357.617 42.8197 357.267 42.8616 356.88C42.8831 356.68 45.0801 336.702 43.7963 326.965C43.1818 322.293 44.6665 313.886 46.3876 304.151C48.3515 293.047 50.5754 280.464 49.8943 271.449C48.633 254.804 43.8403 188.09 43.792 187.417C43.7641 187.028 44.0563 186.691 44.4441 186.664C44.8406 186.632 45.1693 186.926 45.1983 187.317C45.2467 187.989 50.0372 254.699 51.2995 271.341C51.9957 280.534 49.7546 293.211 47.7767 304.396C46.1448 313.617 44.6074 322.325 45.1951 326.78C46.5004 336.689 44.355 356.21 44.2626 357.037C44.2228 357.396 43.9166 357.663 43.5632 357.663" fill="#1B1C1C"/>
<path fill-rule="evenodd" clip-rule="evenodd" d="M116.679 276.969C116.651 276.969 116.62 276.968 116.591 276.963C116.204 276.915 115.93 276.564 115.978 276.177C118.629 254.77 122.08 221.776 120.718 218.619C119.191 215.072 88.8586 189.495 77.3019 179.939C77.0011 179.691 76.9581 179.247 77.2063 178.947C77.4544 178.647 77.9003 178.604 78.199 178.852C82.4792 182.391 120.072 213.554 122.013 218.06C123.963 222.583 118.056 270.861 117.376 276.35C117.332 276.707 117.028 276.969 116.679 276.969" fill="#1B1C1C"/>
<path fill-rule="evenodd" clip-rule="evenodd" d="M77.9061 52.7209C73.9106 52.7209 70.724 50.7584 70.5242 50.6337C70.1955 50.4261 70.0956 49.9906 70.3051 49.6616C70.5103 49.3325 70.9464 49.2315 71.2741 49.439C71.3429 49.4809 77.9748 53.5446 83.6484 49.4626C89.9699 44.9205 88.5679 31.0725 88.3863 29.509C87.9437 25.6636 87.1949 23.2205 87.1873 23.1958C87.0982 22.9054 87.2035 22.5893 87.4506 22.4129C87.4925 22.3828 91.6932 19.344 92.1379 16.2944C92.5784 13.2684 91.7318 11.877 91.7232 11.863C91.5191 11.5361 91.6126 11.1016 91.936 10.892C92.2636 10.6801 92.6891 10.7683 92.9018 11.0898C92.9502 11.1619 94.0578 12.8813 93.5335 16.4976C93.0877 19.5537 89.8292 22.3517 88.6699 23.2592C88.916 24.1711 89.437 26.325 89.7873 29.3466C90.0978 32.036 91.3021 45.7001 84.4714 50.6089C82.2668 52.1929 79.9785 52.7209 77.9061 52.7209" fill="#1B1C1C"/>
<path fill-rule="evenodd" clip-rule="evenodd" d="M83.3072 19.1386C83.0558 19.1386 82.8098 19.0021 82.683 18.7623C82.5015 18.4182 82.6336 17.9923 82.9774 17.8095C82.9978 17.7988 85.2153 16.5751 86.0844 13.676C86.988 10.6511 86.0834 6.80577 86.0737 6.76706C85.9824 6.38855 86.2155 6.00789 86.5937 5.91648C86.9804 5.82293 87.3522 6.05843 87.4446 6.43694C87.4865 6.61007 88.4458 10.6941 87.4349 14.0803C86.3917 17.5676 83.7466 18.9978 83.636 19.0569C83.5318 19.1128 83.419 19.1386 83.3072 19.1386" fill="#1B1C1C"/>
<path fill-rule="evenodd" clip-rule="evenodd" d="M76.8258 15.7572C76.555 15.7572 76.295 15.5992 76.179 15.3325C76.0254 14.9755 76.1876 14.5604 76.5454 14.4056C76.5497 14.4034 77.9538 13.7163 79.4418 10.8613C80.9523 7.96116 79.3999 1.90387 79.3849 1.84366C79.286 1.46622 79.5116 1.08125 79.8887 0.982324C80.2723 0.885545 80.6483 1.11136 80.7471 1.48773C80.8191 1.75656 82.451 8.13751 80.6913 11.514C78.9702 14.8142 77.2931 15.6185 77.1072 15.6992C77.0159 15.739 76.9192 15.7572 76.8258 15.7572" fill="#1B1C1C"/>
<path fill-rule="evenodd" clip-rule="evenodd" d="M55.6985 34.1122C55.1978 34.1122 52.3314 33.9488 49.6467 30.3809C46.6804 26.4376 49.6971 21.5181 55.1387 15.3446C59.0472 10.9111 64.2116 10.6401 68.3629 10.424C69.9207 10.3422 71.2668 10.2713 72.3036 9.98954C75.5674 9.10025 75.1882 5.96677 75.1689 5.83343C75.1173 5.44846 75.3869 5.09253 75.7716 5.03984C76.1605 4.97532 76.5086 5.25275 76.5655 5.63772C76.7857 7.18618 76.2572 10.3745 72.6731 11.3509C71.4914 11.6724 70.0754 11.7466 68.4359 11.8326C64.5489 12.0359 59.7122 12.2897 56.1959 16.278C51.2098 21.9342 48.38 26.3516 50.7726 29.5324C53.1877 32.7423 55.5942 32.7003 55.7081 32.7014C56.1035 32.7132 56.4215 32.9917 56.4365 33.3788C56.4516 33.7649 56.1572 34.0918 55.7704 34.1111C55.7608 34.1111 55.7361 34.1122 55.6985 34.1122" fill="#1B1C1C"/>
<path fill-rule="evenodd" clip-rule="evenodd" d="M64.2131 56.9517C64.1573 56.9517 64.1025 56.9453 64.0498 56.9324C63.6706 56.8421 63.4364 56.4614 63.5256 56.0829C63.5331 56.056 64.1841 53.258 63.9231 50.517C63.6975 48.133 61.4703 44.6533 60.9568 43.878C59.6729 43.2715 52.6822 39.7122 53.4493 34.4507C53.6362 33.1732 54.24 32.2527 55.2434 31.714C58.1646 30.1461 63.5288 32.6613 63.7544 32.7699C64.1068 32.9366 64.2572 33.3571 64.0907 33.7087C63.9231 34.0625 63.5008 34.2098 63.1517 34.0442C61.7808 33.3958 57.81 31.9376 55.9095 32.9592C55.3132 33.2786 54.9652 33.8334 54.8448 34.655C54.1712 39.2638 61.6412 42.6414 61.7174 42.6747C61.8356 42.7274 61.9377 42.8123 62.0107 42.9188C62.1343 43.0984 65.0361 47.3373 65.3272 50.3837C65.6098 53.3634 64.9254 56.2872 64.8975 56.4098C64.8191 56.7335 64.5311 56.9517 64.2131 56.9517" fill="#1B1C1C"/>
<path fill-rule="evenodd" clip-rule="evenodd" d="M77.6605 57.9871C77.3694 57.9871 77.0976 57.8054 76.9955 57.515L75.2293 52.4729C75.1004 52.1051 75.2948 51.7029 75.6622 51.5739C76.0297 51.4438 76.4304 51.6395 76.5593 52.0062L78.3245 57.0473C78.4545 57.4161 78.2611 57.8183 77.8926 57.9463C77.8163 57.9742 77.7368 57.9871 77.6605 57.9871" fill="#1B1C1C"/>
<path fill-rule="evenodd" clip-rule="evenodd" d="M62.5434 33.7257C62.2071 33.7257 61.9095 33.4827 61.8493 33.1386C61.8182 32.9483 61.0822 28.4674 62.7239 25.8544C64.2945 23.351 68.7907 22.7091 75.0531 24.093C79.7791 25.135 81.309 23.2016 81.3713 23.1199C81.6066 22.8145 82.0428 22.7478 82.3543 22.9758C82.6648 23.2059 82.7357 23.636 82.5112 23.9489C82.4306 24.064 80.4495 26.734 74.749 25.4705C69.2688 24.2575 65.1186 24.6941 63.9153 26.605C62.5638 28.761 63.2342 32.8623 63.2395 32.9031C63.3051 33.287 63.0462 33.6505 62.6615 33.7161C62.6218 33.7225 62.5831 33.7257 62.5434 33.7257" fill="#1B1C1C"/>
<path fill-rule="evenodd" clip-rule="evenodd" d="M80.6942 44.4701C79.941 44.4701 79.0579 44.4141 78.0921 44.2453C75.1376 43.7281 73.8248 42.3667 73.7721 42.3097C73.5057 42.0269 73.5175 41.5796 73.8011 41.3118C74.0815 41.0473 74.5263 41.0591 74.7938 41.3366C74.8175 41.3624 75.8961 42.428 78.3349 42.8549C80.9015 43.3044 82.859 42.8668 82.8805 42.8625C83.2554 42.7818 83.6379 43.0119 83.7249 43.3915C83.813 43.77 83.5777 44.1485 83.1985 44.2367C83.1394 44.2507 82.1735 44.4701 80.6942 44.4701" fill="#1B1C1C"/>
<path fill-rule="evenodd" clip-rule="evenodd" d="M80.803 39.0105C80.4474 39.0105 80.1422 38.7427 80.1036 38.3814C80.0627 37.9943 80.3421 37.6459 80.7288 37.604C81.4143 37.5309 82.1642 37.3696 82.5305 37.2265C82.2823 36.5244 81.5099 34.7888 80.8126 33.3231C80.645 32.9726 80.7955 32.551 81.1457 32.3833C81.4927 32.2177 81.9171 32.3639 82.0847 32.7177C82.639 33.8823 83.9358 36.6631 84.0099 37.3308C84.0378 37.5814 83.9626 37.833 83.795 38.0395C83.2965 38.6632 81.7538 38.9137 80.8803 39.0073C80.8535 39.0105 80.8298 39.0105 80.803 39.0105V39.0105Z" fill="#1B1C1C"/>
<path fill-rule="evenodd" clip-rule="evenodd" d="M57.4541 37.345C57.4304 37.345 57.4036 37.3439 57.3789 37.3407C56.9996 37.2987 56.7203 36.974 56.7525 36.5923C56.7611 36.4654 56.8922 35.3255 58.2265 34.6126C59.4352 33.9674 60.676 34.0792 60.7287 34.0846C61.1165 34.1223 61.4002 34.4664 61.3636 34.8545C61.325 35.2427 60.9833 35.5277 60.5944 35.4879C60.5869 35.4868 59.7124 35.418 58.8905 35.8578C58.2341 36.2073 58.1578 36.7041 58.1546 36.7245C58.1062 37.0783 57.8022 37.345 57.4541 37.345" fill="#1B1C1C"/>
<path fill-rule="evenodd" clip-rule="evenodd" d="M61.5643 39.8049C61.3097 39.8049 61.0615 39.6651 60.938 39.4221C60.7671 39.0898 60.2407 38.1403 59.8432 37.7198C59.4983 37.3532 58.3155 36.6434 57.6483 36.2832C57.3067 36.0972 57.1788 35.6692 57.3647 35.3262C57.5495 34.9842 57.9792 34.8595 58.3198 35.0423C58.5164 35.1487 60.2579 36.1026 60.8703 36.7531C61.473 37.3929 62.1197 38.6371 62.1907 38.7769C62.369 39.1231 62.2315 39.549 61.8866 39.7275C61.7835 39.7802 61.6739 39.8049 61.5643 39.8049" fill="#1B1C1C"/>
<path fill-rule="evenodd" clip-rule="evenodd" d="M77.2814 31.4917C77.2814 32.0347 76.842 32.4756 76.2994 32.4756C75.7569 32.4756 75.3164 32.0347 75.3164 31.4917C75.3164 30.9487 75.7569 30.5089 76.2994 30.5089C76.842 30.5089 77.2814 30.9487 77.2814 31.4917" fill="#1B1C1C"/>
<path fill-rule="evenodd" clip-rule="evenodd" d="M86.2365 31.7395C86.2365 32.2826 85.7971 32.7224 85.2545 32.7224C84.712 32.7224 84.2715 32.2826 84.2715 31.7395C84.2715 31.1965 84.712 30.7556 85.2545 30.7556C85.7971 30.7556 86.2365 31.1965 86.2365 31.7395" fill="#1B1C1C"/>
<path fill-rule="evenodd" clip-rule="evenodd" d="M153.62 26.542L154.087 28.3593L161.576 24.1085L160.558 22.3913L153.62 26.542ZM153.634 30.1325C153.54 30.1325 153.447 30.1142 153.359 30.0776C153.156 29.9916 153.006 29.8163 152.951 29.6034L152.123 26.3828C152.047 26.0796 152.177 25.7624 152.444 25.6021L160.442 20.817C160.601 20.7202 160.79 20.6933 160.977 20.7395C161.158 20.7847 161.314 20.9008 161.409 21.0621L163.156 24.0074C163.252 24.1709 163.279 24.3655 163.231 24.5483C163.183 24.7322 163.062 24.8871 162.899 24.9817L153.982 30.0411C153.874 30.1024 153.753 30.1325 153.634 30.1325V30.1325Z" fill="#1B1C1C"/>
<path fill-rule="evenodd" clip-rule="evenodd" d="M157.759 27.8976L161.162 37.0002L164.093 35.1635L159.55 26.8814L157.759 27.8976ZM160.802 38.7616C160.727 38.7616 160.649 38.7498 160.577 38.725C160.376 38.6562 160.216 38.5024 160.141 38.3035L156.224 27.8288C156.103 27.503 156.236 27.1374 156.538 26.9675L159.474 25.3018C159.638 25.2082 159.832 25.1857 160.014 25.2362C160.195 25.2889 160.348 25.4104 160.439 25.576L165.649 35.0679C165.828 35.3969 165.722 35.8077 165.405 36.0066L161.177 38.6541C161.062 38.725 160.933 38.7616 160.802 38.7616V38.7616Z" fill="#1B1C1C"/>
<path fill-rule="evenodd" clip-rule="evenodd" d="M150.431 31.016C150.204 31.016 149.981 30.9052 149.845 30.702C149.63 30.3794 149.715 29.9407 150.04 29.7245L152.871 27.8298C153.193 27.6126 153.63 27.6997 153.85 28.0234C154.066 28.3481 153.979 28.7858 153.655 29.0019L150.823 30.8966C150.703 30.9773 150.566 31.016 150.431 31.016" fill="#1B1C1C"/>
<path fill-rule="evenodd" clip-rule="evenodd" d="M157.949 41.0556C157.745 41.0556 157.538 40.9652 157.4 40.7921C157.156 40.4899 157.204 40.0458 157.507 39.8007L167.891 31.4314C168.088 31.2712 168.359 31.2304 168.599 31.3293C169.687 31.7734 173.015 32.7627 174.041 31.5304C175.561 29.7034 180.307 25.3419 183.189 23.9816C185.993 22.6568 192.632 23.0031 192.913 23.0192C193.301 23.0407 193.601 23.373 193.578 23.7612C193.558 24.1386 193.246 24.4289 192.875 24.4289C192.863 24.4289 192.85 24.4289 192.837 24.4279C192.768 24.4257 186.272 24.0827 183.791 25.2569C181.182 26.4882 176.61 30.6486 175.123 32.4326C173.496 34.3886 169.744 33.252 168.459 32.7853L158.39 40.8996C158.259 41.005 158.104 41.0556 157.949 41.0556" fill="#1B1C1C"/>
<path fill-rule="evenodd" clip-rule="evenodd" d="M183.223 21.0246C182.967 21.0246 182.719 20.8837 182.594 20.6386C182.418 20.2912 182.556 19.8665 182.903 19.6901C183.027 19.6267 185.954 18.1696 190.278 18.6051C194.364 19.0159 196.274 19.0697 196.293 19.0697C196.682 19.0793 196.989 19.403 196.981 19.7923C196.971 20.1826 196.672 20.5009 196.258 20.4794C196.179 20.4773 194.285 20.4256 190.138 20.0084C186.219 19.6149 183.566 20.9343 183.543 20.9483C183.441 20.9999 183.331 21.0246 183.223 21.0246" fill="#1B1C1C"/>
<path fill-rule="evenodd" clip-rule="evenodd" d="M200.51 17.3854C200.499 17.3854 200.487 17.3854 200.474 17.3854C200.447 17.3832 197.883 17.252 194.554 17.3445C191.17 17.4338 187.747 17.3445 187.714 17.3445C187.324 17.3338 187.018 17.009 187.028 16.6197C187.039 16.2316 187.299 15.952 187.752 15.9337C187.783 15.9337 191.178 16.0229 194.516 15.9337C197.903 15.8434 200.521 15.9756 200.545 15.9756C200.935 15.9961 201.234 16.3273 201.213 16.7165C201.194 17.094 200.883 17.3854 200.51 17.3854" fill="#1B1C1C"/>
<path fill-rule="evenodd" clip-rule="evenodd" d="M161.996 24.6128C161.778 24.6128 161.565 24.5118 161.427 24.3236C161.198 24.0085 161.265 23.5665 161.579 23.3375C162.256 22.8439 178.161 11.2229 179.704 10.1627C180.354 9.72179 180.82 9.96051 180.991 10.081C181.263 10.2756 181.951 10.7659 181.043 14.5339C182.551 14.364 185.554 14.0349 188.876 13.722C193.418 13.2908 198.136 10.1186 198.184 10.0863C198.504 9.86696 198.944 9.95191 199.163 10.2745C199.38 10.596 199.296 11.0358 198.974 11.2541C198.77 11.3928 193.907 14.6618 189.008 15.1253C184.295 15.5715 180.227 16.0468 180.187 16.0511C179.954 16.0812 179.723 15.9888 179.569 15.8103C179.416 15.6328 179.362 15.3909 179.424 15.164C179.792 13.8155 180.051 12.3972 180.09 11.6208C177 13.8177 162.566 24.3634 162.412 24.4773C162.287 24.5687 162.14 24.6128 161.996 24.6128" fill="#1B1C1C"/>
<path fill-rule="evenodd" clip-rule="evenodd" d="M136.907 109.709C136.801 109.709 136.695 109.687 136.594 109.636C136.246 109.463 136.104 109.038 136.277 108.69C136.47 108.301 141.108 99.1323 149.245 96.5086L150.975 95.9494C161.208 92.6309 169.216 90.1867 171.362 91.4094C171.817 91.6685 171.984 92.032 172.043 92.2922C172.651 94.9493 164.574 98.6958 161.073 100.183C160.718 100.332 160.3 100.168 160.15 99.8087C159.996 99.4506 160.165 99.0366 160.523 98.8839C166.048 96.5365 170.883 93.545 170.67 92.6062C169.422 91.447 156.8 95.5429 151.408 97.2914L149.678 97.8516C142.1 100.295 137.583 109.229 137.538 109.318C137.416 109.566 137.166 109.709 136.907 109.709" fill="#1B1C1C"/>
<path fill-rule="evenodd" clip-rule="evenodd" d="M145.727 121.883C145.652 121.883 145.576 121.87 145.503 121.844C145.144 121.72 144.945 121.348 145.056 120.985C145.108 120.815 145.646 119.31 148.434 118.76C148.871 118.674 149.431 118.579 150.067 118.471C152.805 118.008 157.385 117.231 158.872 115.887C160.365 114.538 159.255 113.043 159.207 112.979C159.005 112.717 159.016 112.349 159.229 112.096C159.243 112.078 160.729 110.298 160.924 108.074C161.096 106.148 160.421 105.625 160.413 105.62C160.221 105.507 160.108 105.317 160.085 105.093C160.063 104.872 160.162 104.659 160.327 104.508C160.35 104.487 162.663 102.352 161.539 100.81C160.951 100.001 158.631 100.483 154.641 102.233C153.973 102.526 153.694 102.646 153.492 102.685C153.11 102.763 152.74 102.516 152.663 102.133C152.588 101.754 152.829 101.386 153.205 101.305C153.347 101.265 153.655 101.124 154.076 100.94C156.54 99.8606 161.126 97.8465 162.679 99.9788C164.109 101.943 162.606 104.093 161.761 105.05C162.119 105.601 162.474 106.573 162.33 108.198C162.151 110.203 161.148 111.851 160.623 112.591C161.174 113.638 161.487 115.426 159.817 116.935C158.024 118.554 153.377 119.341 150.302 119.863C149.68 119.967 149.134 120.059 148.705 120.144C146.768 120.526 146.399 121.413 146.396 121.423C146.287 121.704 146.014 121.883 145.727 121.883" fill="#1B1C1C"/>
<path fill-rule="evenodd" clip-rule="evenodd" d="M101.786 80.1825C101.773 80.1825 101.763 80.1814 101.75 80.1814C101.361 80.161 101.062 79.8287 101.084 79.4395C101.091 79.3051 101.723 65.8668 95.9418 62.8043C91.9442 60.6859 86.8346 60.5848 83.7834 60.5257C81.5252 60.4805 80.6796 60.4644 80.3863 59.7611C80.2349 59.3987 80.2091 59.0008 80.1844 58.617C80.1307 57.7782 80.0565 57.4438 79.5075 57.261C78.0475 56.7803 64.3625 55.6491 62.738 56.4631C62.0032 56.8308 61.7991 57.6427 61.5831 58.5019C61.3629 59.3772 61.0889 60.4665 59.9866 60.6472C58.605 60.8762 55.5281 61.2117 55.397 61.2257C55.0328 61.2655 54.6643 60.9891 54.6213 60.6009C54.5794 60.2138 54.8588 59.8654 55.2466 59.8235C55.2778 59.8202 58.4138 59.4783 59.7578 59.2568C59.949 59.2245 60.0898 58.6578 60.2165 58.1589C60.4594 57.1879 60.7935 55.8588 62.1074 55.2017C64.2797 54.1146 78.3999 55.4103 79.9469 55.9211C81.4542 56.419 81.5391 57.7384 81.5907 58.5266C81.6014 58.6965 81.6133 58.8697 81.6347 59.0116C82.0451 59.0804 82.9755 59.0987 83.8114 59.1148C86.9893 59.1772 92.3062 59.2815 96.6015 61.5569C103.175 65.0398 102.522 78.9244 102.49 79.5137C102.471 79.89 102.16 80.1825 101.786 80.1825" fill="#1B1C1C"/>
<path fill-rule="evenodd" clip-rule="evenodd" d="M154.997 49.2549C154.767 49.2549 154.543 49.143 154.406 48.9355L144.081 33.1089C143.869 32.782 143.961 32.3455 144.285 32.1325C144.611 31.9185 145.047 32.011 145.262 32.3368L155.587 48.1634C155.799 48.4903 155.709 48.9269 155.382 49.1398C155.264 49.2172 155.129 49.2549 154.997 49.2549" fill="#1B1C1C"/>
<path fill-rule="evenodd" clip-rule="evenodd" d="M145.228 129.691C145.02 129.691 144.813 129.599 144.674 129.423L131.662 112.957C131.42 112.652 131.473 112.208 131.777 111.967C132.081 111.726 132.527 111.775 132.768 112.082L145.781 128.549C146.021 128.853 145.969 129.297 145.665 129.538C145.536 129.641 145.382 129.691 145.228 129.691" fill="#1B1C1C"/>
<path fill-rule="evenodd" clip-rule="evenodd" d="M94.2064 147.207C94.0485 147.207 93.8884 147.154 93.7573 147.045C93.637 146.945 81.6924 136.88 76.0994 117.3C70.459 97.5516 72.2167 75.2979 75.3129 70.7525C78.493 66.0824 81.8009 66.0286 81.9395 66.0286C82.3295 66.0286 82.6443 66.3447 82.6443 66.734C82.6443 67.1243 82.3295 67.4394 81.9395 67.4394C81.8364 67.4416 79.2031 67.5437 76.4764 71.5482C73.5134 75.9 71.9212 97.5376 77.4541 116.913C82.9301 136.077 94.5405 145.861 94.6555 145.958C94.9552 146.207 94.9971 146.651 94.749 146.952C94.6093 147.12 94.4084 147.207 94.2064 147.207" fill="#1B1C1C"/>
<path fill-rule="evenodd" clip-rule="evenodd" d="M57.078 182.414C48.8227 182.415 37.4797 173.461 33.6422 169.781C33.3564 169.507 32.4851 168.671 32.8912 167.781C33.4832 166.48 36.0788 166.585 42.3003 167.157C45.1162 167.415 49.7294 167.84 50.7447 167.335C49.6156 166.081 41.3506 163.565 33.972 161.863C33.5917 161.775 33.3564 161.397 33.4434 161.017C33.5326 160.639 33.9107 160.401 34.2889 160.488C39.4125 161.67 51.4151 164.674 52.1811 167.034C52.3111 167.432 52.2241 167.844 51.9447 168.167C50.9574 169.308 47.5893 169.06 42.1714 168.562C39.3717 168.306 35.2161 167.924 34.2567 168.352C34.3147 168.439 34.4211 168.573 34.6177 168.763C39.9787 173.905 53.2673 183.51 60.1291 180.406C67.7516 176.955 78.1492 171.82 78.2523 171.767C78.5972 171.597 79.0247 171.736 79.1966 172.088C79.3685 172.437 79.2256 172.86 78.8776 173.033C78.7723 173.083 68.3543 178.231 60.7103 181.691C59.6027 182.191 58.379 182.414 57.078 182.414V182.414Z" fill="#1B1C1C"/>
</svg>
