<svg width="30" height="130" viewBox="0 0 30 130" fill="none" xmlns="http://www.w3.org/2000/svg">
<path fill-rule="evenodd" clip-rule="evenodd" d="M4.34385 1.48903C14.5154 10.4755 20.2323 23.1116 22.8127 36.8876C26.7092 57.6922 23.4568 81.101 17.4328 98.6575C13.648 109.692 7.39876 115.892 1.35122 125.802C1.10649 126.203 1.23311 126.727 1.63456 126.972C2.03387 127.216 2.55982 127.09 2.80241 126.688C8.92079 116.663 15.213 110.373 19.0429 99.2092C25.1506 81.408 28.4352 57.6708 24.4851 36.5742C21.8338 22.4182 15.9237 9.44938 5.47092 0.213842C5.11885 -0.097444 4.58218 -0.0652755 4.27089 0.2868C3.95961 0.638875 3.99178 1.17774 4.34385 1.48903Z" fill="black"/>
<path fill-rule="evenodd" clip-rule="evenodd" d="M1.89213 129.085C1.91574 129.051 2.06811 128.819 2.21624 128.638C2.82593 127.887 4.01312 126.67 5.60175 125.223C10.9365 120.375 20.7797 112.969 28.8924 112.226C29.3604 112.183 29.7039 111.769 29.661 111.301C29.6181 110.833 29.2058 110.487 28.7378 110.53C20.2966 111.303 10.007 118.92 4.45749 123.965C3.7147 124.641 3.05356 125.27 2.49539 125.83C2.97627 123.462 3.5172 121.112 4.0861 118.761C5.72625 111.994 5.74342 105.801 4.34585 98.9266C4.25354 98.4672 3.80273 98.1689 3.34331 98.2633C2.8839 98.3556 2.58553 98.8064 2.67999 99.2658C4.02388 105.882 4.01102 111.846 2.43312 118.359C1.69033 121.432 0.994735 124.508 0.412952 127.614C0.354989 127.924 0.213312 128.729 0.211165 128.844C0.198285 129.506 0.734985 129.669 0.855206 129.699C0.913169 129.714 1.6431 129.858 1.89213 129.085ZM0.292719 128.505C0.286278 128.527 0.27767 128.548 0.27123 128.572C0.275523 128.553 0.284132 128.531 0.292719 128.505Z" fill="black"/>
</svg>
