<svg width="262" height="135" viewBox="0 0 262 135" fill="none" xmlns="http://www.w3.org/2000/svg">
<path fill-rule="evenodd" clip-rule="evenodd" d="M207.094 116.225H152.907C148.54 116.225 145 112.643 145 108.225C145 103.806 148.54 100.225 152.907 100.225H207.094C211.46 100.225 215 103.806 215 108.225C215 112.643 211.46 116.225 207.094 116.225" fill="white"/>
<path fill-rule="evenodd" clip-rule="evenodd" d="M152.766 100.76C148.649 100.76 145.3 104.107 145.3 108.222C145.3 112.337 148.649 115.685 152.766 115.685H207.337C211.454 115.685 214.804 112.337 214.804 108.222C214.804 104.107 211.454 100.76 207.337 100.76H152.766ZM207.337 116.677H152.766C148.102 116.677 144.307 112.884 144.307 108.222C144.307 103.56 148.102 99.7678 152.766 99.7678H207.337C212.001 99.7678 215.796 103.56 215.796 108.222C215.796 112.884 212.001 116.677 207.337 116.677V116.677Z" fill="#1B1C1C"/>
<path fill-rule="evenodd" clip-rule="evenodd" d="M254 107.225C254 122.136 242.135 134.225 227.5 134.225C212.865 134.225 201 122.136 201 107.225C201 92.3128 212.865 80.2249 227.5 80.2249C242.135 80.2249 254 92.3128 254 107.225" fill="white"/>
<path fill-rule="evenodd" clip-rule="evenodd" d="M224.587 99.9923C224.54 101.637 222.838 112.096 225.455 114.989C228.073 117.883 230.887 116.173 230.887 116.173L230.363 122.225C230.363 122.225 236.71 120.909 236.841 120.711C236.973 120.515 237.495 113.674 237.495 113.674C237.495 113.674 242.861 112.95 241.88 108.412C240.898 103.873 238.869 104.597 238.869 104.597C238.869 104.597 243.254 95.6181 233.373 94.3357C225.316 93.2895 224.587 99.9923 224.587 99.9923" fill="#EE4266"/>
<path fill-rule="evenodd" clip-rule="evenodd" d="M228 124.225C228.299 123.861 233.779 116.35 237.566 117.309C241.352 118.269 239.591 122.107 239.591 122.107L228 124.225Z" fill="#1DAA6B"/>
<path fill-rule="evenodd" clip-rule="evenodd" d="M227.521 134.225C235.79 134.225 243.167 130.312 248 124.194C247.993 124.132 247.606 121.061 244.077 120.349C240.511 119.63 239.461 122.277 239.461 122.277L228.349 124.37C228.349 124.37 228.413 123.749 226.375 124.828C224.343 125.903 222.013 133.581 222 133.625C223.781 134.016 225.627 134.225 227.521 134.225" fill="#1DAA6B"/>
<path fill-rule="evenodd" clip-rule="evenodd" d="M228 105.225C228 106.881 226.433 108.225 224.5 108.225C222.567 108.225 221 106.881 221 105.225C221 103.568 222.567 102.225 224.5 102.225C226.433 102.225 228 103.568 228 105.225" fill="#1B1C1C"/>
<path fill-rule="evenodd" clip-rule="evenodd" d="M235 105.225C235 106.881 233.657 108.225 232 108.225C230.343 108.225 229 106.881 229 105.225C229 103.568 230.343 102.225 232 102.225C233.657 102.225 235 103.568 235 105.225" fill="#1B1C1C"/>
<path fill-rule="evenodd" clip-rule="evenodd" d="M227 105.225H229V104.225H227V105.225Z" fill="#1B1C1C"/>
<path fill-rule="evenodd" clip-rule="evenodd" d="M227.405 81.0718C212.901 81.0718 201.101 92.8656 201.101 107.362C201.101 121.859 212.901 133.653 227.405 133.653C241.909 133.653 253.709 121.859 253.709 107.362C253.709 92.8656 241.909 81.0718 227.405 81.0718M227.405 134.646C212.353 134.646 200.109 122.406 200.109 107.362C200.109 92.3195 212.353 80.0801 227.405 80.0801C242.456 80.0801 254.701 92.3195 254.701 107.362C254.701 122.406 242.456 134.646 227.405 134.646" fill="#1B1C1C"/>
<path fill-rule="evenodd" clip-rule="evenodd" d="M213.981 36.2249H159.019C154.59 36.2249 151 32.6432 151 28.2249C151 23.8059 154.59 20.2249 159.019 20.2249H213.981C218.41 20.2249 222 23.8059 222 28.2249C222 32.6432 218.41 36.2249 213.981 36.2249" fill="white"/>
<path fill-rule="evenodd" clip-rule="evenodd" d="M159.242 20.6805C155.126 20.6805 151.777 24.0276 151.777 28.1424C151.777 32.2572 155.126 35.6049 159.242 35.6049H213.815C217.931 35.6049 221.28 32.2572 221.28 28.1424C221.28 24.0276 217.931 20.6805 213.815 20.6805H159.242ZM213.815 36.5966H159.242C154.578 36.5966 150.784 32.8046 150.784 28.1423C150.784 23.4806 154.578 19.6886 159.242 19.6886H213.815C218.479 19.6886 222.272 23.4806 222.272 28.1423C222.272 32.8046 218.479 36.5966 213.815 36.5966V36.5966Z" fill="#1B1C1C"/>
<path fill-rule="evenodd" clip-rule="evenodd" d="M261 27.2249C261 42.1367 248.912 54.2249 234 54.2249C219.089 54.2249 207 42.1367 207 27.2249C207 12.313 219.089 0.224854 234 0.224854C248.912 0.224854 261 12.313 261 27.2249" fill="white"/>
<path fill-rule="evenodd" clip-rule="evenodd" d="M226.58 28.2249C226.58 28.2249 225.72 32.3358 223.806 33.8886C221.892 35.4413 219.624 36.7929 219.07 38.9963C218.516 41.2004 221.438 43.2249 221.438 43.2249V40.7497C221.438 40.7497 222.647 41.7511 224.512 42.2522C226.375 42.7532 228.441 42.2019 228.441 42.2019L226.829 40.8496C226.829 40.8496 227.434 41.301 230.104 41.401C232.774 41.5009 234 38.8049 234 38.8049L231.817 29.2302L226.58 28.2249Z" fill="#4F266A"/>
<path fill-rule="evenodd" clip-rule="evenodd" d="M227.478 22.6612C227.478 22.6612 226.403 31.4793 227.478 33.0381C228.553 34.5969 232.431 33.915 232.431 33.915L233.365 39.2249L240 36.887L239.206 20.2249L227.478 22.6612Z" fill="#FFD141"/>
<path fill-rule="evenodd" clip-rule="evenodd" d="M226.578 28.5481C226.578 28.5481 223.837 24.7948 223.068 21.4467C222.3 18.0974 228.305 16.9865 228.305 16.9865C228.305 16.9865 229.666 12.0046 235.365 13.5074C241.065 15.0101 239.416 18.6535 244.348 24.9258C249.279 31.1982 253.186 28.977 252.993 35.1183C252.801 41.2609 244.475 41.9794 244.475 41.9794L245.565 39.6272C245.565 39.6272 243.259 42.5022 241.209 42.8941C239.16 43.2865 238.712 43.2207 238.712 43.2207L240.761 41.0647C240.761 41.0647 238.904 41.6854 236.791 39.0877C234.678 36.4913 235.382 34.3999 236.407 32.2439C237.431 30.0873 233.525 27.2122 232.308 25.448C231.091 23.6845 231.241 21.5758 231.241 21.5758C231.241 21.5758 231.347 22.247 229.489 23.4883C227.633 24.7296 226.578 28.5481 226.578 28.5481" fill="#4F266A"/>
<path fill-rule="evenodd" clip-rule="evenodd" d="M232.084 42.2249C232.084 42.2249 231.802 38.4009 232.271 37.7234C232.739 37.046 240.471 33.9967 241.079 34.2385C241.689 34.4803 243 38.2247 243 38.2247L232.084 42.2249Z" fill="#EE4266"/>
<path fill-rule="evenodd" clip-rule="evenodd" d="M248.79 36.4975C245.042 35.301 243.415 38.4301 243.415 38.4301L231.925 42.3866C231.925 42.3866 231.284 42.1949 229.066 43.7267C226.854 45.2534 223.026 51.985 223 52.0299C226.329 53.4387 230.002 54.2249 233.865 54.2249C241.842 54.2249 249.016 50.8934 253.995 45.5863L254 45.5794C254 45.5794 252.537 37.6945 248.79 36.4975" fill="#EE4266"/>
<path fill-rule="evenodd" clip-rule="evenodd" d="M233.882 0.991913C219.379 0.991913 207.578 12.7857 207.578 27.2822C207.578 41.7793 219.379 53.5731 233.882 53.5731C248.387 53.5731 260.186 41.7793 260.186 27.2822C260.186 12.7857 248.387 0.991913 233.882 0.991913M233.882 54.5655C218.832 54.5655 206.586 42.3261 206.586 27.2821C206.586 12.2394 218.832 0 233.882 0C248.934 0 261.179 12.2394 261.179 27.2821C261.179 42.3261 248.934 54.5655 233.882 54.5655" fill="#1B1C1C"/>
<path fill-rule="evenodd" clip-rule="evenodd" d="M65.8842 43.2249H5.11639C2.29032 43.2249 0 40.94 0 38.1212V32.3285C0 29.5091 2.29032 27.2249 5.11639 27.2249H65.8842C68.7097 27.2249 71 29.5091 71 32.3285V38.1212C71 40.94 68.7097 43.2249 65.8842 43.2249" fill="white"/>
<path fill-rule="evenodd" clip-rule="evenodd" d="M8.45794 27.7785C4.34108 27.7785 0.992377 31.1262 0.992377 35.241C0.992377 39.3559 4.34108 42.7035 8.45794 42.7035H63.0302C67.1464 42.7035 70.4958 39.3559 70.4958 35.241C70.4958 31.1262 67.1464 27.7785 63.0302 27.7785H8.45794ZM63.0301 43.6953H8.45789C3.79389 43.6953 0 39.9026 0 35.241C0 30.5793 3.79389 26.7866 8.45789 26.7866H63.0301C67.6941 26.7866 71.488 30.5793 71.488 35.241C71.488 39.9026 67.6941 43.6953 63.0301 43.6953V43.6953Z" fill="#1B1C1C"/>
<path fill-rule="evenodd" clip-rule="evenodd" d="M110 34.2249C110 49.1367 97.9122 61.2249 83.0006 61.2249C68.0891 61.2249 56 49.1367 56 34.2249C56 19.313 68.0891 7.22485 83.0006 7.22485C97.9122 7.22485 110 19.313 110 34.2249" fill="white"/>
<path fill-rule="evenodd" clip-rule="evenodd" d="M89.6824 33.2248C89.683 33.2348 91.0368 31.9327 91.3231 30.3506C91.6095 28.7691 90.5021 26.9188 90.5021 26.9188C90.5021 26.9188 95.9517 28.6259 95.9997 23.7852C96.0476 18.9444 90.9889 14.9669 88.3646 16.5959C85.7397 18.2262 85.5219 20.574 85.5219 20.574C85.5219 20.574 81.9689 18.0818 77.6746 19.2801C73.3796 20.4784 70.4211 23.6895 70.0389 26.565C69.6567 29.4398 72.2181 32.6447 72.2181 32.6447L89.6824 33.2248Z" fill="#4F266A"/>
<path fill-rule="evenodd" clip-rule="evenodd" d="M72.8683 28.6957C72.8683 28.6957 70.9146 35.8475 72.8683 39.2285C74.8213 42.6088 78.9886 40.0082 78.9886 40.0082V47.2249L85.6962 44.754V37.0826C85.6962 37.0826 89.8634 37.6671 89.9934 34.157C90.124 30.6457 88.3009 29.4112 86.7377 30.1261C85.1745 30.8416 84.5241 32.7915 84.5241 32.7915L83.417 30.2558C83.417 30.2558 81.5933 31.6219 79.3147 30.2558C77.0355 28.891 76.1234 26.2249 76.1234 26.2249C76.1234 26.2249 76.5145 28.9558 72.8683 28.6957" fill="#EE4266"/>
<path fill-rule="evenodd" clip-rule="evenodd" d="M83.4031 61.2249C88.7985 61.2249 93.8145 59.6251 98 56.8839C97.9844 56.8338 95.9977 50.7705 93.4484 48.7527C90.8896 46.7269 88.5856 47.7401 88.5856 47.7401C88.5856 47.7401 88.714 43.5609 87.6906 43.245C86.6666 42.9285 78.8928 46.442 78.4127 46.7901C77.9332 47.1387 78.4127 49.9561 78.4127 49.9561C78.4127 49.9561 76.9092 49.164 75.8214 50.6522C74.738 52.1337 74.0056 59.4554 74 59.5192C76.9224 60.6185 80.0908 61.2249 83.4031 61.2249" fill="#57B9A2"/>
<path fill-rule="evenodd" clip-rule="evenodd" d="M83.0977 8.0903C68.594 8.0903 56.7938 19.8841 56.7938 34.3812C56.7938 48.8777 68.594 60.6721 83.0977 60.6721C97.602 60.6721 109.402 48.8777 109.402 34.3812C109.402 19.8841 97.602 8.0903 83.0977 8.0903M83.0977 61.6645C68.0468 61.6645 55.8014 49.4251 55.8014 34.3811C55.8014 19.3378 68.0468 7.09839 83.0977 7.09839C98.1485 7.09839 110.394 19.3378 110.394 34.3811C110.394 49.4251 98.1485 61.6645 83.0977 61.6645" fill="#1B1C1C"/>
<path fill-rule="evenodd" clip-rule="evenodd" d="M63.981 108.225H9.019C4.59079 108.225 1 104.643 1 100.225C1 95.8064 4.59079 92.2249 9.019 92.2249H63.981C68.4098 92.2249 72 95.8064 72 100.225C72 104.643 68.4098 108.225 63.981 108.225" fill="white"/>
<path fill-rule="evenodd" clip-rule="evenodd" d="M9.06264 93.1647C4.94578 93.1647 1.59644 96.513 1.59644 100.628C1.59644 104.742 4.94578 108.09 9.06264 108.09H63.6343C67.7511 108.09 71.0998 104.742 71.0998 100.628C71.0998 96.513 67.7511 93.1647 63.6343 93.1647H9.06264ZM63.6342 109.082H9.06259C4.39796 109.082 0.604065 105.289 0.604065 100.628C0.604065 95.9656 4.39796 92.173 9.06259 92.173H63.6342C68.2982 92.173 72.0921 95.9656 72.0921 100.628C72.0921 105.289 68.2982 109.082 63.6342 109.082V109.082Z" fill="#1B1C1C"/>
<path fill-rule="evenodd" clip-rule="evenodd" d="M111 99.7245C111 114.36 98.912 126.225 84.0003 126.225C69.0886 126.225 57 114.36 57 99.7245C57 85.089 69.0886 73.2249 84.0003 73.2249C98.912 73.2249 111 85.089 111 99.7245" fill="white"/>
<path fill-rule="evenodd" clip-rule="evenodd" d="M71.7685 90.2785C71.7685 90.2785 70.5231 88.9301 70.0891 86.6122C69.6563 84.2937 70.8949 81.4824 71.7685 82.0254C72.6415 82.5677 73.1226 83.505 73.1226 83.505C73.1226 83.505 73.4598 81.0392 74.3743 81.236C75.2894 81.4335 75.8194 83.505 75.8194 83.505C75.8194 83.505 76.5417 81.384 77.1195 82.0254C77.6973 82.6668 77.4084 83.3075 79.1896 83.5546C80.9714 83.801 85.0167 80.4473 88.2907 83.8994C91.5654 87.3521 91.9504 89.917 91.9981 92.5308C92.0465 95.1446 91.1471 96.9369 91.1471 96.9369C91.1471 96.9369 83.0421 100.225 82.8976 100.225C82.7532 100.225 71.7685 90.2785 71.7685 90.2785" fill="#4F266A"/>
<path fill-rule="evenodd" clip-rule="evenodd" d="M72.8349 88.6176C72.8349 88.6176 70.735 90.7715 71.028 97.5202C71.3211 104.27 72.4568 106.235 74.8528 107.283C77.2489 108.331 79.9608 107.021 79.9608 107.021V114.225L88.4746 110.95L87.8435 102.175C87.8435 102.175 91.7535 102.436 90.87 97.1313C89.9879 91.8273 85.1952 93.5295 84.3753 94.709C83.5555 95.8878 82.6097 97.7214 82.6097 97.7214C82.6097 97.7214 81.7874 98.1141 81.0002 96.804C80.2131 95.4944 78.8886 90.3864 78.8886 90.3864C78.8886 90.3864 78.5104 91.1719 77.6277 90.5171C76.7449 89.8617 75.925 88.2249 75.925 88.2249C75.925 88.2249 75.6727 90.2634 74.1829 89.9194C72.8843 89.6196 72.8349 88.6176 72.8349 88.6176" fill="#FFD141"/>
<path fill-rule="evenodd" clip-rule="evenodd" d="M79.077 115.79C79.077 115.79 80.3488 112.163 84.4731 109.854C88.5975 107.544 89.7279 106.911 90.4795 107.36C91.2298 107.809 90.9483 116.238 90.9483 116.238L80.4381 122.225C80.4381 122.225 78.6076 116.791 79.077 115.79" fill="#EE4266"/>
<path fill-rule="evenodd" clip-rule="evenodd" d="M83.852 126.225C89.914 126.225 95.5051 124.286 100 121.018C99.9873 121.004 94.0998 114.256 91.2259 114.225C88.3501 114.194 79.3184 118.721 79.3184 118.721C79.3184 118.721 76.3575 118.763 74.3144 119.984C72.2732 121.203 71.0032 123.065 71 123.07C74.8177 125.081 79.1959 126.225 83.852 126.225" fill="#EE4266"/>
<path fill-rule="evenodd" clip-rule="evenodd" d="M83.7021 73.4771C69.1984 73.4771 57.3988 85.2709 57.3988 99.7674C57.3988 114.265 69.1984 126.058 83.7021 126.058C98.2064 126.058 110.006 114.265 110.006 99.7674C110.006 85.2709 98.2064 73.4771 83.7021 73.4771M83.702 127.051C68.6512 127.051 56.4058 114.812 56.4058 99.7675C56.4058 84.7241 68.6512 72.4854 83.702 72.4854C98.7535 72.4854 110.998 84.7241 110.998 99.7675C110.998 114.812 98.7535 127.051 83.702 127.051" fill="#1B1C1C"/>
</svg>
