<svg width="119" height="56" viewBox="0 0 119 56" fill="none" xmlns="http://www.w3.org/2000/svg">
<path d="M14.2169 54.4762H18.7716C18.6999 53.8665 18.5923 52.6472 18.5923 51.2844V36.8313H13.8225V47.0883C13.8225 49.1326 12.6031 50.5671 10.4871 50.5671C8.2636 50.5671 7.25942 48.9891 7.25942 47.0166V36.8313H2.48956V47.9849C2.48956 51.8223 4.92828 54.9425 9.19605 54.9425C11.061 54.9425 13.1052 54.2252 14.0735 52.5755C14.0735 53.2927 14.1452 54.1176 14.2169 54.4762ZM26.3366 54.4762V52.3244C27.269 53.8307 29.134 54.9066 31.5727 54.9066C36.5936 54.9066 39.893 50.9257 39.893 45.5821C39.893 40.346 36.9164 36.3651 31.752 36.3651C29.134 36.3651 27.1973 37.5128 26.4083 38.768V28.511H21.7102V54.4762H26.3366ZM35.1232 45.6179C35.1232 48.8456 33.1865 50.6388 30.7478 50.6388C28.345 50.6388 26.3366 48.8098 26.3366 45.6179C26.3366 42.3902 28.345 40.6329 30.7478 40.6329C33.1865 40.6329 35.1232 42.3902 35.1232 45.6179ZM53.9625 54.4762H58.5171C58.4454 53.8665 58.3378 52.6472 58.3378 51.2844V36.8313H53.568V47.0883C53.568 49.1326 52.3486 50.5671 50.2327 50.5671C48.0091 50.5671 47.0049 48.9891 47.0049 47.0166V36.8313H42.2351V47.9849C42.2351 51.8223 44.6738 54.9425 48.9416 54.9425C50.8065 54.9425 52.8507 54.2252 53.819 52.5755C53.819 53.2927 53.8907 54.1176 53.9625 54.4762ZM66.2256 44.3268C66.2256 42.2826 67.4449 40.6688 69.525 40.6688C71.8203 40.6688 72.7886 42.2109 72.7886 44.1834V54.4762H77.5585V43.3585C77.5585 39.4853 75.5501 36.3651 71.1747 36.3651C69.274 36.3651 67.158 37.19 66.0821 39.019V36.8313H61.4557V54.4762H66.2256V44.3268ZM86.6673 31.5594H82.3636V34.034C82.3636 35.612 81.5029 36.8313 79.638 36.8313H78.7414V41.0633H81.9333V49.276C81.9333 52.683 84.0851 54.7273 87.528 54.7273C88.9267 54.7273 89.7874 54.4762 90.2177 54.2969V50.3519C89.9667 50.4236 89.3212 50.4954 88.7473 50.4954C87.3845 50.4954 86.6673 49.9933 86.6673 48.4511V41.0633H90.2177V36.8313H86.6673V31.5594ZM104.637 54.4762H109.191C109.12 53.8665 109.012 52.6472 109.012 51.2844V36.8313H104.242V47.0883C104.242 49.1326 103.023 50.5671 100.907 50.5671C98.6832 50.5671 97.679 48.9891 97.679 47.0166V36.8313H92.9092V47.9849C92.9092 51.8223 95.3479 54.9425 99.6157 54.9425C101.481 54.9425 103.525 54.2252 104.493 52.5755C104.493 53.2927 104.565 54.1176 104.637 54.4762Z" fill="#4C1D95"/>
<path d="M88.0827 22.769C87.9646 22.7755 87.8463 22.7755 87.7282 22.769C86.8328 22.6244 86.0139 22.1766 85.4081 21.5002C84.9652 21.0417 84.5716 20.5378 84.2338 19.9968C81.3661 15.0296 78.5174 10.0508 75.6876 5.06032C75.4695 4.68198 75.3044 4.27532 75.197 3.85183C74.9027 2.65285 76.1972 1.43167 77.3874 1.75521C77.952 1.94989 78.4502 2.30068 78.8244 2.76704C81.249 5.30456 83.6756 7.84207 86.1044 10.3796C86.4758 10.7572 86.8817 11.0992 87.3167 11.4009C87.5791 11.5955 87.8958 11.7028 88.2221 11.708C88.5485 11.7131 88.8683 11.6157 89.1367 11.4295C89.4795 11.2178 89.7979 10.9689 90.0863 10.6873C92.283 8.50182 94.4638 6.3037 96.651 4.11192C97.1669 3.5949 97.6702 3.06203 98.2336 2.59576C99.0945 1.87891 100.082 1.90746 100.978 2.59576C101.416 2.93433 101.723 3.41558 101.845 3.9565V4.39422C101.717 4.83291 101.547 5.25789 101.336 5.66298C98.0374 10.7824 94.7265 15.8955 91.403 21.0023C90.8364 21.7596 90.0522 22.3251 89.1557 22.6231C88.8061 22.7081 88.4486 22.757 88.089 22.769" fill="#6C49A5"/>
<path d="M92.0117 4.54618C91.9945 5.4809 91.6094 6.37092 90.9404 7.02229C90.2714 7.67366 89.3727 8.03358 88.4401 8.02364C86.576 8.04076 85.008 6.42041 84.988 4.45775C84.9926 3.53721 85.3613 2.6561 86.0133 2.00786C86.6654 1.35961 87.5474 0.997225 88.4657 1.00026C88.9321 0.994927 89.3949 1.08294 89.827 1.25914C90.2591 1.43535 90.6517 1.6962 90.9819 2.02642C91.3122 2.35665 91.5733 2.7496 91.7502 3.18227C91.927 3.61494 92.0159 4.07863 92.0117 4.54618Z" fill="#6C49A5"/>
<path d="M77.057 23.869C77.0291 23.9436 77.0043 24.0443 76.9671 24.1221C76.6245 24.7228 76.0944 25.1814 75.4661 25.4203C75.0376 25.6036 74.5916 25.7385 74.1357 25.8228C69.9843 26.4394 65.8412 27.0506 61.7063 27.6564C61.3905 27.7019 61.0701 27.7019 60.7543 27.6564C59.8642 27.5266 59.3898 26.2576 59.9325 25.5047C60.2176 25.1608 60.5894 24.9078 61.0055 24.7745C63.3872 23.7716 65.7688 22.7785 68.1381 21.766C68.4957 21.6119 68.8375 21.4205 69.1584 21.1948C69.3643 21.0631 69.5251 20.8666 69.6176 20.6333C69.7101 20.4001 69.7295 20.1421 69.6732 19.8966C69.6254 19.5897 69.5453 19.2893 69.4344 19.0008C68.5506 16.8232 67.6543 14.6487 66.7674 12.4743C66.5565 11.9615 66.3301 11.452 66.1689 10.9229C66.0436 10.56 66.0494 10.1617 66.1854 9.80297C66.3213 9.44427 66.578 9.15001 66.907 8.97568C67.2562 8.76315 67.6646 8.68293 68.0637 8.7485L68.3738 8.87183C68.6328 9.08673 68.8707 9.32809 69.084 9.59232C71.6559 13.3852 74.2174 17.1866 76.7686 20.9968C77.1277 21.6146 77.2976 22.3326 77.2555 23.0544C77.2164 23.3264 77.152 23.5938 77.0632 23.8528" fill="#C2433A"/>
<path d="M65.479 15.9873C65.8625 16.1466 66.2109 16.3799 66.5043 16.6739C66.7977 16.9679 67.0303 17.3168 67.1889 17.7007C67.3474 18.0846 67.4289 18.496 67.4285 18.9113C67.4281 19.3267 67.3459 19.7379 67.1866 20.1216C67.0274 20.5052 66.7941 20.8536 66.5002 21.1471C66.2062 21.4405 65.8574 21.6732 65.4736 21.8318C65.0898 21.9904 64.6785 22.0718 64.2632 22.0715C63.8479 22.0711 63.4367 21.9889 63.0532 21.8296C62.2869 21.5177 61.6756 20.9144 61.3535 20.1522C61.0314 19.39 61.0248 18.5311 61.3352 17.764C61.4873 17.3727 61.7159 17.0156 62.0076 16.7136C62.2993 16.4117 62.6483 16.171 63.0342 16.0055C63.42 15.8401 63.8349 15.7533 64.2547 15.7501C64.6745 15.747 65.0907 15.8276 65.479 15.9873Z" fill="#C2433A"/>
<path d="M100.633 23.5526C100.592 23.4733 100.556 23.3918 100.524 23.3084C100.365 22.6389 100.434 21.9332 100.72 21.3103C100.901 20.8691 101.125 20.4482 101.39 20.0542C103.901 16.5783 106.425 13.112 108.962 9.65535C109.154 9.3918 109.381 9.15624 109.634 8.95503C110.357 8.39284 111.552 8.93254 111.68 9.85774C111.707 10.3033 111.614 10.7479 111.412 11.1427C110.403 13.5874 109.385 16.0289 108.383 18.4801C108.235 18.8505 108.121 19.2345 108.043 19.6269C107.987 19.869 108.005 20.1232 108.096 20.3537C108.187 20.5843 108.346 20.7795 108.551 20.9119C108.794 21.0902 109.055 21.241 109.329 21.3617C111.432 22.2376 113.539 23.1092 115.65 23.9766C116.145 24.1822 116.649 24.3718 117.125 24.6191C117.462 24.7809 117.729 25.0647 117.876 25.4165C118.023 25.7684 118.04 26.1638 117.922 26.5273C117.82 26.9327 117.584 27.2891 117.256 27.5361L116.963 27.6678C116.633 27.6981 116.301 27.6981 115.97 27.6678C111.572 26.8946 107.174 26.1086 102.775 25.3098C102.102 25.1416 101.495 24.7636 101.038 24.2272C100.878 24.011 100.743 23.7772 100.633 23.5301" fill="#2DA955"/>
<path d="M114.699 21.0548C114.321 21.2412 113.909 21.3471 113.489 21.366C113.069 21.3849 112.65 21.3164 112.257 21.1646C111.864 21.0128 111.506 20.7811 111.205 20.4836C110.904 20.1861 110.666 19.8292 110.506 19.4349C110.346 19.0406 110.267 18.6172 110.274 18.1908C110.282 17.7645 110.375 17.3441 110.549 16.9558C110.722 16.5674 110.972 16.2192 111.284 15.9326C111.595 15.646 111.961 15.4272 112.359 15.2895C113.1 14.9725 113.935 14.9669 114.68 15.2741C115.426 15.5812 116.02 16.1759 116.334 16.9275C116.499 17.3068 116.587 17.7157 116.595 18.1302C116.602 18.5447 116.527 18.9565 116.376 19.3415C116.224 19.7265 115.998 20.0769 115.712 20.3723C115.425 20.6676 115.083 20.902 114.706 21.0616" fill="#02B784"/>
<path d="M85.6068 21.6319C86.1769 22.2383 86.9473 22.6398 87.7897 22.7695C87.9008 22.7753 88.0122 22.7753 88.1233 22.7695C88.4616 22.7588 88.7979 22.7149 89.1269 22.6387C89.9704 22.3715 90.7082 21.8644 91.2413 21.1853C92.6687 19.0883 94.0962 16.9913 95.5237 14.8942C90.8813 13.3012 85.8161 13.2271 81.1249 14.6838C82.2545 16.5514 83.3832 18.418 84.5109 20.2838C84.8265 20.7655 85.1937 21.2144 85.6068 21.6233" fill="#7D55BE"/>
<path d="M75.4625 25.4723C76.0945 25.2286 76.6275 24.7609 76.9712 24.1484C77.0073 24.0644 77.0386 23.9782 77.0649 23.8902C77.1548 23.6265 77.2186 23.3537 77.2554 23.076C77.2979 22.3414 77.1279 21.6105 76.7681 20.9809C75.9206 19.7033 75.0721 18.428 74.2225 17.1548C70.9941 19.7246 68.4182 23.1034 66.7261 26.9881C69.1895 26.6175 71.6539 26.2435 74.1194 25.8661C74.5785 25.7797 75.0276 25.6421 75.4594 25.4557" fill="#D54A41"/>
<path d="M100.73 21.2041C100.433 21.854 100.362 22.5897 100.529 23.2874C100.555 23.3745 100.61 23.4649 100.639 23.5419C100.756 23.7982 100.898 24.0417 101.062 24.2687C101.541 24.828 102.176 25.2221 102.88 25.3974L110.976 26.8477C109.25 23.0402 106.66 19.7159 103.426 17.1548C102.758 18.0681 102.094 18.9813 101.433 19.8945C101.155 20.3044 100.919 20.7434 100.73 21.2041Z" fill="#33BB5F"/>
</svg>
